<?xml version="1.0" encoding="utf-8"?>
<!-- Generator: Adobe Illustrator 24.1.1, SVG Export Plug-In . SVG Version: 6.00 Build 0)  -->
<svg version="1.1" id="レイヤー_1" xmlns="http://www.w3.org/2000/svg" xmlns:xlink="http://www.w3.org/1999/xlink" x="0px"
	 y="0px" viewBox="0 0 575.43 198.43" style="enable-background:new 0 0 575.43 198.43;" xml:space="preserve">
<style type="text/css">
	.st0{fill:none;}
	.st1{fill:#E60012;}
	.st2{font-family:'BrushScriptMT';}
	.st3{font-size:150.9149px;}
	.st4{fill:#E60012;stroke:#000000;stroke-width:7;stroke-miterlimit:10;}
	.st5{stroke:#000000;stroke-width:7;stroke-miterlimit:10;}
</style>
<g>
	<rect x="93.74" y="14.43" class="st0" width="426.43" height="160.62"/>
	<text transform="matrix(0.5554 0 0 1 93.741 137.5046)" class="st1 st2 st3">GrillYURITO</text>
	<g>
		<polygon class="st1" points="70.21,99.78 69.51,100.5 63.27,107 63.27,92.57 69.75,99.31 		"/>
		<polygon class="st1" points="63.27,107 28.57,143.08 28.57,56.5 63.27,92.57 		"/>
		<polygon class="st1" points="69.51,100.5 104.92,137.32 63.27,180.61 63.27,107 		"/>
		<polygon class="st1" points="69.75,99.31 63.27,92.57 63.27,19.47 104.92,62.75 		"/>
		<polygon class="st1" points="69.75,99.31 69.05,100.03 63.27,106.05 63.27,92.57 		"/>
		<polygon class="st1" points="69.51,100.5 63.27,107 63.27,94.02 69.05,100.03 		"/>
	</g>
	<line class="st1" x1="79.47" y1="175.05" x2="520.17" y2="131.77"/>
	<line class="st4" x1="68.33" y1="183.99" x2="554.97" y2="120.5"/>
</g>
<g>
	<rect x="89.68" y="14.43" class="st0" width="426.43" height="160.62"/>
	<text transform="matrix(0.5554 0 0 1 89.6846 137.5046)" class="st2 st3">GrillYURITO</text>
	<g>
		<polygon points="66.15,99.78 65.46,100.5 59.21,107 59.21,92.57 65.69,99.31 		"/>
		<polygon points="59.21,107 24.51,143.08 24.51,56.5 59.21,92.57 		"/>
		<polygon points="65.46,100.5 100.86,137.32 59.21,180.61 59.21,107 		"/>
		<polygon points="65.69,99.31 59.21,92.57 59.21,19.47 100.86,62.75 		"/>
		<polygon points="65.69,99.31 65,100.03 59.21,106.05 59.21,92.57 		"/>
		<polygon points="65.46,100.5 59.21,107 59.21,94.02 65,100.03 		"/>
	</g>
	<line class="st0" x1="75.41" y1="175.05" x2="516.12" y2="131.77"/>
	<line class="st5" x1="64.28" y1="183.99" x2="550.92" y2="120.5"/>
</g>
</svg>
