<?xml version="1.0" encoding="utf-8"?>
<!-- Generator: Adobe Illustrator 24.1.1, SVG Export Plug-In . SVG Version: 6.00 Build 0)  -->
<svg version="1.1" id="レイヤー_1" xmlns="http://www.w3.org/2000/svg" xmlns:xlink="http://www.w3.org/1999/xlink" x="0px"
	 y="0px" viewBox="0 0 283.46 311.81" style="enable-background:new 0 0 283.46 311.81;" xml:space="preserve">
<style type="text/css">
	.st0{opacity:0.73;fill:#E60012;}
</style>
<path class="st0" d="M456.81,33.63c-3.44-10.64-13.68-16.52-24.6-13.97c-26.1,6.1-52.15,12.41-78.15,18.94
	c4.93-5.07,9.6-10.46,13.37-16.41c21.31-2.74,42.61-5.49,63.92-8.23c10.34-1.33,20.53-8.24,20-20c-0.43-9.69-8.89-21.43-20-20
	c-0.92,0.12-1.83,0.24-2.75,0.35c1.01-6.29-0.76-13.08-5.49-17.43c-15.66-14.43-35.99-13.46-55.4-8.69
	c-18.29,4.49-36.56,8.2-55.21,10.9c-0.05,0.01-0.08,0.01-0.13,0.02c-0.08,0.01-0.15,0.02-0.25,0.03c-0.95,0.12-1.9,0.24-2.85,0.36
	c-2.54,0.32-5.08,0.62-7.62,0.91c-4.77,0.54-9.54,1.04-14.32,1.51c-9.88,0.96-19.77,1.78-29.66,2.54
	c-19.62,1.51-39.25,2.91-58.87,4.36C119.05-25.29,39.23-19.9-40.49-13.4c-20.8,1.7-41.6,3.63-62.34,6.01
	c-7.67,0.36-15.34,0.76-23,1.29c-17,1.18-34.3,3.21-50.26,9.48c-9.7,3.82-17.54,13.57-13.97,24.6c3.57,11.04,13.56,16.01,24.6,13.97
	c9.64-1.78,19.3-3.41,28.99-4.89c4.52-0.69,9.05-1.34,13.57-1.97c0.05-0.01,0.54-0.07,1.02-0.14c0.76-0.1,2.12-0.28,2.4-0.32
	c2.59-0.34,5.18-0.66,7.78-0.98c2.99-0.37,5.99-0.71,8.99-1.05c6.52-0.29,13.04-0.55,19.56-0.82c7.55-0.31,15.11-0.59,22.67-0.84
	c-0.09,0.42-0.17,0.84-0.23,1.26c-4.34,0.9-8.69,1.8-13.02,2.74c-34.6,7.43-68.99,15.82-103.14,25.09
	c-10.09,2.74-17.29,14.35-13.97,24.6c3.59,11.09,13.54,15.94,24.6,13.97c0.18-0.03,0.36-0.06,0.54-0.1
	c-5.29,4.33-8.14,11.39-7.21,18.31c0.81,6.01,4.59,11.67,9.83,14.82c-0.41,0.11-0.82,0.21-1.23,0.32
	c-10.11,2.68-17.27,14.39-13.97,24.6c1.75,5.42,5.23,9.55,9.65,12c-0.36,0.15-0.73,0.3-1.09,0.45c-7.95,3.33-15.11,9.77-14.68,19.29
	c0.31,6.88,4.39,15.13,11.08,18.19c-1.28,3.04-1.79,6.49-1.29,10.23c1.28,9.56,9.64,17.58,19.64,17.34
	c3.59-0.09,7.19-0.2,10.78-0.33c-4.42,1.27-8.82,2.6-13.2,4.03c-9.52,3.12-15.68,11.85-14.33,21.94c0.27,2,0.85,3.91,1.66,5.68
	c-1.62,6.94-0.07,14.8,5.23,19.01c5.31,4.21,10.71,6.85,16.52,8.32c-4.71,3.51-7.87,8.81-7.58,15.34c0.46,10.38,8.81,20.57,20,20
	c26.93-1.37,53.86-2.76,80.78-4.3c2.15,0.82,4.5,1.21,6.99,1.01c36.89-2.95,73.78-5.89,110.66-8.84
	c30.64,6.79,62.47,6.39,93.35-2.12c0.44-0.12,0.87-0.26,1.29-0.42c8.94,0.9,17.86,1.87,26.78,2.95c4.91,0.59,9.82,1.22,14.73,1.87
	c0.97,0.13,2.78,0.38,3.21,0.44c2.58,0.36,5.16,0.72,7.74,1.1c13.91,2.01,27.78,4.27,41.61,6.73c3.65,4.23,8.91,7.04,14.7,6.65
	c18-1.21,35.81-4.42,52.9-10.23c7.27-2.47,12.6-8.06,14.08-15.11l89.19-18.35c9.74-2,15.56-12.72,14.33-21.94
	c-1.22-9.08-9.71-18.24-19.64-17.34c-13.66,1.24-27.32,2.48-40.97,3.72c-3.2-6.96-9.85-12.58-17.95-11.82
	c-17.15,1.61-34.32,3.35-51.45,5.41c-1.15,0.12-2.29,0.24-3.44,0.36c1.78-7.42,3.72-14.79,5.83-22.12
	c15.4-2.67,30.81-5.34,46.21-8.04c9.77-1.71,15.53-12.95,14.33-21.94c-0.27-1.98-0.77-3.78-1.48-5.42c7.1-0.74,14.2-1.47,21.31-2.17
	c10.38-1.03,20.52-8.46,20-20c-0.45-9.97-8.85-21.08-20-20c-0.52,0.05-1.04,0.1-1.57,0.15c0.08-1.23,0.04-2.43-0.11-3.59
	c-1.37-10.17-9.59-16.72-19.64-17.34c-18.85-1.17-37.75-1.03-56.63-0.4c0.44-1.66,0.65-3.44,0.56-5.35
	c-0.2-4.54-1.88-8.97-4.62-12.5c4.9-1.6,9.77-3.27,14.62-5.01c17.33-3.68,34.66-7.36,51.99-11.04c8.45-1.79,14.62-10.65,14.75-19.23
	c18.11-5.15,36.21-10.34,54.3-15.57C452.89,55.34,460.17,44,456.81,33.63z"/>
</svg>
