<?xml version="1.0" encoding="utf-8"?>
<!-- Generator: Adobe Illustrator 24.1.1, SVG Export Plug-In . SVG Version: 6.00 Build 0)  -->
<svg version="1.1" id="レイヤー_1" xmlns="http://www.w3.org/2000/svg" xmlns:xlink="http://www.w3.org/1999/xlink" x="0px"
	 y="0px" viewBox="0 0 272.1 141.7" style="enable-background:new 0 0 272.1 141.7;" xml:space="preserve">
<style type="text/css">
	.st0{fill:#F39800;}
</style>
<path class="st0" d="M430.9,74c-0.4-8.9-5.5-15.5-12.9-18.4c2.1-3.7,3.1-8.2,2.5-12.7c-1.3-9.5-9.6-17.6-19.6-17.3
	c-15.7,0.4-31.4,0.8-47,1.2c6.1-4.2,9.6-11.2,8.6-19.1C361-2.8,352.8-8.4,342.7-9.6c-4.4-0.5-8.8-1-13.2-1.4
	c-2.4-2.7-5.4-4.6-9.1-5.1c-1.8-0.2-3.5-0.5-5.3-0.7c0,0,0,0,0,0c0,0-0.1,0-0.1,0c-1-0.1-1.9-0.3-2.9-0.4c2.1-3.5,3.1-7.6,2.4-12.4
	C313.2-39.8,305-46.4,295-47c-70.2-4.3-141.9,6.9-207.4,32.6c-2.4,0.1-4.8,0.2-7.2,0.4c-3.5-5.5-9.7-8.9-16.8-9.4
	c-26.6-1.9-54,2-79,11.3c-2.9,1.1-5.5,2.6-7.7,4.5c-3.6,0.3-7.2,0.7-10.8,1c-10.4,1-20.5,8.5-20,20c0.2,4.8,2.1,9.6,5.3,13.3
	c-6.6,0.6-13.1,1.2-19.7,2c-7.5,0.8-15,4.9-18.3,11.5c-0.9,0.1-1.9,0.2-2.8,0.3c-10.4,1-20.5,8.4-20,20c0.5,11.2,8.8,19.5,20,20
	c11.9,0.5,23.8,0.9,35.8,1.2c-1.3,2.6-2,5.5-1.8,8.5c0.1,2.6,0.7,5,1.6,7.3c-9.6,0.1-19.2,0.1-28.8,0.2c-10.5,0.1-20.5,9.2-20,20
	c0.1,3.2,1,6.3,2.4,9c-9,1.4-17.9,2.8-26.9,4.3c-9.8,1.6-15.5,13-14.3,21.9c1.3,10,9.6,17,19.6,17.3c21.2,0.8,42.4,1.4,63.5,1.6
	c3.6,4.6,8.9,7.7,15.2,7.2c24.8-1.9,49.4,1.6,73.9,4.8c24.2,3.1,48,4.8,72.3,2.8c24.6-2.1,49.4-6,74.2-4c1.3,0.1,2.5,0.2,3.8,0.4
	c0.3,0,0.6,0.1,0.9,0.1c0.1,0,0.2,0.1,0.4,0.1c2.6,0.5,5.2,1,7.8,1.4c9.5,1.5,18.1,1.2,27-3c1-0.5,2-1,3-1.5
	c2.3,4.9,5.3,9.4,8.9,13.5c4.3,4.9,11.1,9,17.8,8.7c6.3-0.3,11.1-2.8,16.1-6.4c13.4-9.6,25.8-19.6,35.7-32.8c2.5-3.3,5-7.1,7-11.1
	c7.9,0.6,15.8,1.3,23.7,1.6c8.5,0.4,17.1,0.5,25.6,0.4c10.6-0.2,20.7-0.9,30.2-6c7.3-3.9,11.1-13.2,9.5-21.3c1-0.9,2-1.7,3-2.5
	c1.4-1.2,2.8-2.3,4.2-3.4c0.2-0.1,0.3-0.2,0.4-0.3c0.2-0.1,0.6-0.4,1.3-0.9c7.8-5.8,12.7-16,8.3-25.3
	C421.9,92.8,431.4,85.1,430.9,74z M350.9,113.2c-0.2,0.2-0.4,0.4-0.6,0.6c-0.4,0-0.8,0-1.3,0c-0.1,0-0.2,0-0.3,0
	c0.7-0.3,1.4-0.5,2.1-0.8C350.9,113,350.9,113.1,350.9,113.2z"/>
</svg>
