<?xml version="1.0" encoding="utf-8"?>
<!-- Generator: Adobe Illustrator 24.1.1, SVG Export Plug-In . SVG Version: 6.00 Build 0)  -->
<svg version="1.1" id="レイヤー_1" xmlns="http://www.w3.org/2000/svg" xmlns:xlink="http://www.w3.org/1999/xlink" x="0px"
	 y="0px" viewBox="0 0 272.13 141.73" style="enable-background:new 0 0 272.13 141.73;" xml:space="preserve">
<style type="text/css">
	.st0{fill:#F39800;}
</style>
<path class="st0" d="M377.89,89.59c-0.52-11.66-8.81-18.96-20-20c-22.14-2.05-44.31-3.76-66.51-5.17c2.34-1.88,4.2-4.26,5.56-7.49
	c2.32-5.51,2.55-12.63-1.01-17.8c-2.09-3.03-4.51-5.7-7.2-8.06c5.48-4.24,8.6-10.67,7.58-18.27c-1.4-10.39-9.59-16.41-19.64-17.34
	c-18.41-1.7-36.83-3.4-55.24-5.1c-18.08-1.67-36.25-3.34-54.41-2.24c-19.16,1.16-37.9,5.51-56.83,8.37
	c-1.02,0.15-2.04,0.3-3.06,0.44c-0.08,0.01-0.15,0.02-0.24,0.02c-2.24,0.24-4.48,0.53-6.72,0.77C95.7-1.8,91.21-1.41,86.71-1.1
	c-9,0.62-18.01,0.94-27.03,1.06C56.2,0,52.72,0,49.24-0.01c-1.96-0.67-4-0.96-6.04-0.68c-1.64,0.22-3.28,0.41-4.93,0.58
	c-0.67-0.06-1.34-0.12-2.01-0.19c-0.1-0.01-1.28-0.15-2.11-0.24c-1.22-0.21-2.43-0.41-3.64-0.65c-2.16-0.43-4.32-0.92-6.44-1.53
	c-0.83-0.24-2.15-0.46-3.33-0.8c-0.12-0.08-0.49-0.29-1.28-0.72c-0.83-0.44-1.67-0.85-2.49-1.32c-0.79-0.45-1.53-0.98-2.32-1.43
	c-1.44-1.53-2.96-2.91-4.3-4.54c-6.64-8.14-21.48-7.41-28.28,0c-6.58,7.17-7.11,15.92-3.06,23.65c-0.43,1.24-0.76,2.52-0.93,3.82
	c-0.83,6.15,1.6,13.44,6.38,17.92c-7.03,0.92-14.04,2.09-20.99,3.65c-9.71,2.17-15.58,12.59-14.33,21.94
	c0.19,1.44,0.56,2.83,1.04,4.15c-0.55,1.42-0.94,2.86-1.13,4.28c-1.3,9.7,4.65,19.31,14.33,21.94c4.31,1.17,8.64,2.22,12.99,3.17
	c-2.36,0.2-4.73,0.44-7.1,0.71c-0.06,0-0.12-0.01-0.18-0.01c0,0.01,0,0.02,0,0.04c-1.77,0.21-3.54,0.43-5.32,0.68
	c-9.81,1.38-15.5,13.21-14.33,21.94c1.38,10.24,9.59,16.62,19.64,17.34c4.94,0.35,9.88,0.73,14.82,1.21
	c2.47,0.24,4.93,0.52,7.39,0.8c0.17,0.02,0.31,0.04,0.45,0.06c0.3,0.04,0.6,0.09,0.9,0.14c-5.84,9.07-4.8,23.15,5.97,29.06
	c16.15,8.87,33.93,6.72,51.58,6.22c4.39-0.12,8.79-0.22,13.18-0.29c51.43,2.63,102.92,4.17,154.42,4.59
	c19.93,0.16,39.86,0.15,59.79-0.01c8.46-0.07,17.34-6.13,19.29-14.68c0.17-0.75,0.29-1.49,0.38-2.23
	c6.66-3.96,10.31-12.67,9.32-20.05c-0.7-5.22-3.62-10.14-7.78-13.41c0.12-0.98,0.17-2,0.12-3.06c-0.14-3.22-1.13-6.57-2.77-9.6
	c20.53-1.85,41.12-2.98,61.74-2.86C368.35,109.66,378.37,100.35,377.89,89.59z"/>
</svg>
