<?xml version="1.0" encoding="utf-8"?>
<!-- Generator: Adobe Illustrator 24.1.1, SVG Export Plug-In . SVG Version: 6.00 Build 0)  -->
<svg version="1.1" xmlns="http://www.w3.org/2000/svg" xmlns:xlink="http://www.w3.org/1999/xlink" x="0px" y="0px"
	 viewBox="0 0 595.28 841.89" style="enable-background:new 0 0 595.28 841.89;" xml:space="preserve">
<style type="text/css">
	.st0{stroke:#E60012;stroke-miterlimit:10;}
	.st1{fill:none;}
	.st2{stroke:#E60012;stroke-width:0.5;stroke-miterlimit:10;}
</style>
<g id="レイヤー_1">
	<g>
		<path class="st0" d="M66.22,44.62c0.73,1.65,0.83,5.04,0.27,10.17c1.1-0.37,1.56-1.01,1.38-1.92l3.57,0.55
			c1.83,0.19,2.75,0.92,2.75,2.2c0,1.47-0.73,2.66-2.2,3.57c-2.2,1.47-4.22,2.47-6.05,3.02c-0.73,3.3-1.19,6.42-1.38,9.35
			c5.31-2.75,9.8-4.4,13.47-4.95c2.56-0.37,4.85-0.55,6.87-0.55c2.2,0,4.4,0.92,6.6,2.75c2.02,1.83,3.02,3.76,3.02,5.77
			c0,2.75-1.28,5.22-3.85,7.42c-2.75,2.02-5.77,3.02-9.07,3.02c-2.38,0-4.12-0.18-5.22-0.55c-1.65-0.55-2.75-1.38-3.3-2.47
			c-0.55-1.1-0.64-2.02-0.27-2.75c0.73,1.1,2.11,1.56,4.12,1.38c1.1,0,2.66-0.18,4.67-0.55c4.95-2.38,7.51-4.4,7.7-6.05
			c0-1.83-0.55-3.3-1.65-4.4c-0.92-0.73-2.29-1.1-4.13-1.1c-2.57,0-6.05,1.01-10.45,3.02c-4.22,2.02-7.33,3.85-9.35,5.5l-0.28,3.3
			c0,2.38-0.09,4.86-0.27,7.42c-0.37,2.56-1.56,3.02-3.57,1.38c-1.83-1.1-4.03-2.38-6.6-3.85c-2.2-1.1-3.3-2.29-3.3-3.57
			c-0.55-1.83,0.27-2.84,2.47-3.02c2.2-1.28,4.4-2.66,6.6-4.12c0.37-4.22,0.82-7.97,1.38-11.27c-1.1,0-2.66-0.37-4.67-1.1
			c-1.65-0.73-2.66-1.28-3.02-1.65c-0.92-0.92-1.65-1.92-2.2-3.02c-0.37-0.37-0.46-0.73-0.27-1.1c2.02,0.92,3.94,1.47,5.77,1.65
			c2.75-0.37,4.58-0.92,5.5-1.65c0.37-3.85,0.64-6.23,0.83-7.15v-4.95c0-1.47-0.55-2.56-1.65-3.3c0.92,0,1.65,0.09,2.2,0.27
			C64.66,42.42,65.85,43.52,66.22,44.62z M56.87,81.46l0.82,1.1c0.37,0.19,0.64,0.09,0.83-0.27c0.18-0.92,0.27-1.83,0.27-2.75
			L56.87,81.46z M92.34,43.24c1.83,0.55,3.21,1.74,4.13,3.57c0.55,1.83,0.55,3.21,0,4.13c-1.47,0.18-3.3,0.18-5.5,0
			c-1.28-0.18-2.38-0.37-3.3-0.55c-0.55-0.18-1.1-0.55-1.65-1.1c1.83-0.18,3.3-0.73,4.4-1.65c-1.65-0.37-2.93-0.83-3.85-1.38
			c-0.92-0.92-1.92-1.65-3.02-2.2c1.28-0.73,3.21-1.19,5.77-1.38C90.23,42.69,91.24,42.88,92.34,43.24z"/>
		<path class="st0" d="M142.11,38.29c0.91,0.55,1.38,2.2,1.38,4.95l-0.28,5.5v4.12c2.38,0,5.31,0.09,8.8,0.27
			c3.12,0.37,5.5,1.1,7.15,2.2c2.75,2.02,3.12,3.39,1.1,4.13c-1.29,0-2.84-0.18-4.68-0.55c-2.02-0.37-3.85-0.73-5.5-1.1
			c-2.2-0.55-4.49-0.83-6.88-0.83c-0.19,10.08-0.55,16.87-1.1,20.35c-0.92,3.48-2.38,6.14-4.4,7.97c-2.38,2.02-4.04,3.21-4.95,3.57
			c-1.47,0.55-3.03,1.28-4.68,2.2c-1.65,0.73-1.92,0.64-0.82-0.27c5.31-3.85,8.15-7.51,8.53-11c-4.22-2.2-6.51-5.77-6.88-10.72
			c-0.19-1.1-0.1-2.38,0.28-3.85c0.37-1.65,1.38-2.75,3.02-3.3c1.1-0.18,2.75,0.27,4.95,1.38c0.18-1.65,0.37-3.85,0.55-6.6
			c-6.05,0-12.1,0.83-18.15,2.48c-2.2,0.55-4.67,1.1-7.42,1.65c-1.28,0.55-2.2,0.37-2.75-0.55c-0.73-0.73-1.01-1.38-0.83-1.92
			c0.37-1.65,1.92-3.21,4.67-4.67c-0.18,0.92,0,1.56,0.55,1.93c0.73,0.37,1.56,0.37,2.48,0l4.12-0.55c2.75-0.55,6.05-1.01,9.9-1.38
			c3.66-0.37,6.23-0.55,7.7-0.55c0.18-2.2,0.37-3.85,0.55-4.95v-6.6c0-1.65-0.18-2.75-0.55-3.3c-0.55-0.92-1.47-1.28-2.75-1.1
			c0.37-0.55,0.82-0.83,1.38-0.83h0.55C139.36,36.19,141.01,36.83,142.11,38.29z M133.31,67.17c0.37,4.03,1.65,6.78,3.85,8.25
			c0.55,0.18,0.73-0.55,0.55-2.2c-0.37-3.3-1.1-5.96-2.2-7.97c-0.73-0.92-1.38-1.01-1.93-0.27C133.4,65.7,133.31,66.43,133.31,67.17
			z"/>
		<path class="st0" d="M206.73,38.29c0.92,0.55,1.38,2.2,1.38,4.95l-0.28,5.5v4.12c2.38,0,5.32,0.09,8.8,0.27
			c3.12,0.37,5.5,1.1,7.15,2.2c2.75,2.02,3.12,3.39,1.1,4.13c-1.28,0-2.84-0.18-4.67-0.55c-2.02-0.37-3.85-0.73-5.5-1.1
			c-2.2-0.55-4.49-0.83-6.88-0.83c-0.18,10.08-0.55,16.87-1.1,20.35c-0.92,3.48-2.38,6.14-4.4,7.97c-2.38,2.02-4.04,3.21-4.95,3.57
			c-1.47,0.55-3.02,1.28-4.67,2.2c-1.65,0.73-1.92,0.64-0.82-0.27c5.31-3.85,8.15-7.51,8.52-11c-4.22-2.2-6.51-5.77-6.88-10.72
			c-0.18-1.1-0.09-2.38,0.28-3.85c0.37-1.65,1.38-2.75,3.02-3.3c1.1-0.18,2.75,0.27,4.95,1.38c0.18-1.65,0.37-3.85,0.55-6.6
			c-6.05,0-12.1,0.83-18.15,2.48c-2.2,0.55-4.67,1.1-7.42,1.65c-1.29,0.55-2.2,0.37-2.75-0.55c-0.73-0.73-1.01-1.38-0.83-1.92
			c0.37-1.65,1.92-3.21,4.67-4.67c-0.18,0.92,0,1.56,0.55,1.93c0.73,0.37,1.56,0.37,2.47,0l4.13-0.55c2.75-0.55,6.05-1.01,9.9-1.38
			c3.67-0.37,6.23-0.55,7.7-0.55c0.18-2.2,0.37-3.85,0.55-4.95v-6.6c0-1.65-0.18-2.75-0.55-3.3c-0.55-0.92-1.47-1.28-2.75-1.1
			c0.37-0.55,0.83-0.83,1.38-0.83h0.55C203.98,36.19,205.63,36.83,206.73,38.29z M197.93,67.17c0.37,4.03,1.65,6.78,3.85,8.25
			c0.55,0.18,0.73-0.55,0.55-2.2c-0.37-3.3-1.1-5.96-2.2-7.97c-0.73-0.92-1.38-1.01-1.92-0.27
			C198.02,65.7,197.93,66.43,197.93,67.17z"/>
		<path class="st0" d="M252.93,49.29c0.37,1.28,0.83,3.21,1.38,5.77c0.18,1.1,0.18,2.02,0,2.75c4.03-2.02,8.25-3.48,12.65-4.4
			c0.55-1.65,0.92-3.3,1.1-4.95c0-1.28-0.28-2.47-0.83-3.57c-1.28,0.19-2.38,0.92-3.3,2.2l-0.27-0.28c0.73-2.75,2.38-4.12,4.95-4.12
			c2.2,0.37,3.3,2.02,3.3,4.95c-0.18,1.83-0.46,3.67-0.83,5.5c5.13,0.37,9.53,2.2,13.2,5.5c3.3,3.67,4.95,7.7,4.95,12.1
			c0,3.3-1.2,5.87-3.58,7.7c-2.93,2.75-8.98,5.04-18.15,6.87c-2.75,0.55-4.4,0.73-4.95,0.55c6.42-2.38,11.55-5.13,15.4-8.25
			c3.3-2.93,4.85-5.68,4.67-8.25c0.18-3.12-0.64-5.96-2.48-8.52c-1.83-2.57-5.22-3.85-10.17-3.85c-1.28,2.93-2.93,5.87-4.95,8.8
			c-1.65,2.38-3.67,4.58-6.05,6.6c0.18,1.1,0.37,2.02,0.55,2.75c-0.37,3.3-1.38,4.12-3.02,2.47c-0.37-0.37-0.92-0.73-1.65-1.1
			c-1.47,0.92-3.3,2.11-5.5,3.57c-1.65,0.73-3.03,1.28-4.13,1.65c-1.29,0-2.57-1.47-3.85-4.4c-0.92-2.02-2.11-3.67-3.58-4.95
			l1.1-2.75c1.83-2.57,3.94-4.58,6.33-6.05c1.65-1.1,2.93-2.02,3.85-2.75c0.18-7.33,0.28-13.65,0.28-18.97
			c0.55,0.37,1.1,1.1,1.65,2.2C252.1,46.64,252.74,48.38,252.93,49.29z M241.65,72.39c1.28,1.47,2.48,2.57,3.58,3.3
			c0.73,0.19,1.92-0.09,3.57-0.82c1.28-0.92,2.48-1.83,3.58-2.75c-1.1-2.2-1.92-4.58-2.47-7.15
			C244.58,67.9,241.83,70.37,241.65,72.39z M255.13,62.49c0.37,1.83,0.73,3.21,1.1,4.12l0.55,1.65c0.73-0.55,1.19-1.38,1.38-2.48
			c0.37,0.37,0.55,0.83,0.55,1.38c2.02-2.38,4.21-5.5,6.6-9.35C261.27,59.1,257.88,60.66,255.13,62.49z"/>
		<path class="st0" d="M330.47,42.42c3.48,2.57,5.04,4.77,4.67,6.6c-1.83,4.95-4.4,9.99-7.7,15.12c2.93,2.02,5.5,4.03,7.7,6.05
			c1.1,1.28,1.74,2.57,1.92,3.85c0,1.47-0.83,2.2-2.48,2.2c-0.92,0-2.29-0.46-4.12-1.37c-1.65-0.92-3.3-2.02-4.95-3.3
			c-1.1-0.92-2.02-1.65-2.75-2.2c-2.57,2.93-5.32,5.5-8.25,7.7c-2.38,1.65-4.95,3.02-7.7,4.12c-2.93,1.1-5.41,1.65-7.42,1.65
			c-1.65-0.18-3.02-0.46-4.12-0.82c2.2-0.37,4.12-1.01,5.77-1.92c5.5-2.75,11-7.42,16.5-14.02c-1.47-0.92-3.12-1.93-4.95-3.02
			c-1.47-1.1-3.02-2.66-4.67-4.67c0.73-0.18,1.47-0.27,2.2-0.27c1.28,0,2.84,0.27,4.67,0.82c1.83,0.37,3.94,1.1,6.32,2.2
			c2.38-3.12,4.4-7.51,6.05-13.2c-0.74-0.73-1.47-1.74-2.2-3.02c-0.37-0.92-0.55-1.74-0.55-2.47c0.73-0.18,1.83-0.37,3.3-0.55
			L330.47,42.42z"/>
		<path class="st0" d="M388.22,68.54c2.01,0.37,5.04,1.56,9.07,3.57c1.46,0.92,2.01,2.02,1.65,3.3c-0.37,0.73-1.47,1.1-3.3,1.1
			c-2.2-0.18-4.4-0.55-6.6-1.1c-3.3-0.37-7.79-0.64-13.47-0.82c-2.38,0-4.67,0.09-6.87,0.27c-2.93,0.37-5.04,0.82-6.33,1.37
			c-2.2,0.55-3.76,0.92-4.67,1.1c-1.47-0.18-3.76-1.1-6.87-2.75c-1.1-0.55-1.83-1.1-2.2-1.65c3.85-1.28,8.89-2.29,15.12-3.02
			c5.87-0.55,13.56-0.73,23.1-0.55L388.22,68.54z M386.29,49.84c1.65,0.73,2.47,1.65,2.47,2.75c0,0.92-0.55,1.56-1.65,1.92
			c-4.95,1.1-11.64,1.83-20.07,2.2c-0.73-0.18-1.56-0.37-2.47-0.55c-1.29-0.37-2.38-1.1-3.3-2.2c-0.73-0.73-1.29-1.38-1.65-1.93
			h3.85c6.23-0.36,11.09-0.82,14.57-1.37c0.73-0.55,1.47-1.19,2.2-1.92C382.07,48.93,384.09,49.29,386.29,49.84z"/>
		<path class="st0" d="M442.94,60.84c0.37,0.73,0.09,1.37-0.83,1.92c-1.1,4.22-2.29,8.89-3.58,14.02c3.12,0.18,5.5,0.37,7.15,0.55
			c0.92-0.18,1.83-0.37,2.75-0.55c3.3,1.47,5.13,2.75,5.5,3.85c0.73,1.1,0.27,1.83-1.38,2.2c-5.87-1.28-11.55-2.02-17.05-2.2
			c-3.3-0.18-6.97,0.09-11,0.83c-3.67,0.73-6.05,1.28-7.15,1.65c-1.1,0.19-2.02,0.09-2.75-0.27c-2.02-1.1-3.39-1.92-4.13-2.47
			c4.58-1.47,9.17-2.38,13.75-2.75c2.75-0.37,5.59-0.64,8.52-0.82c1.46-3.85,2.57-7.88,3.3-12.1c0-0.73,0-1.47,0-2.2
			c-1.83,0-3.76,0.18-5.77,0.55c-2.02,0.55-3.85,0.82-5.5,0.82c-1.28-0.37-3.02-1.37-5.22-3.02l-1.65-1.38
			c4.95,0.18,10.54,0,16.77-0.55c0.73-0.37,1.65-0.82,2.75-1.37C440.37,58.46,442.2,59.56,442.94,60.84z"/>
		<path class="st0" d="M509.48,59.19c0.92,0.18,1.92,1.01,3.03,2.47c0.37,0.37,0.27,1.01-0.28,1.92c-0.55,0.73-1.74,1.1-3.57,1.1
			c-2.75,0-5.13-0.09-7.15-0.27c-4.4-0.18-7.7-0.09-9.9,0.27c-2.93,0.55-9.26,1.56-18.97,3.02c-1.47,0-2.48-0.28-3.03-0.83
			c-0.92-0.55-2.02-1.92-3.3-4.12c-0.73-1.28-0.82-2.2-0.27-2.75c0.55,0.18,1.65,0.46,3.3,0.83c1.46,0.37,3.3,0.55,5.5,0.55
			c3.3,0,6.69-0.18,10.17-0.55c3.3-0.37,6.69-0.73,10.17-1.1c2.2-0.37,4.21-0.55,6.05-0.55c1.65-0.18,3.3-0.28,4.95-0.28
			L509.48,59.19z"/>
	</g>
	<g>
	</g>
	<g>
		<defs>
			<path id="SVGID_1_" d="M119.24,228.62H29.85c-6.6,0-12-5.4-12-12v-61.04c0-6.6,5.4-12,12-12h89.39c6.6,0,12,5.4,12,12v61.04
				C131.24,223.22,125.84,228.62,119.24,228.62z"/>
		</defs>
		<clipPath id="SVGID_2_">
			<use xlink:href="#SVGID_1_"  style="overflow:visible;"/>
		</clipPath>
	</g>
	<g>
		<defs>
			<path id="SVGID_3_" d="M119.24,345.48H29.85c-6.6,0-12-5.4-12-12v-61.04c0-6.6,5.4-12,12-12h89.39c6.6,0,12,5.4,12,12v61.04
				C131.24,340.08,125.84,345.48,119.24,345.48z"/>
		</defs>
		<clipPath id="SVGID_4_">
			<use xlink:href="#SVGID_3_"  style="overflow:visible;"/>
		</clipPath>
	</g>
	<g>
		<defs>
			<path id="SVGID_5_" d="M119.24,462.34H29.85c-6.6,0-12-5.4-12-12V389.3c0-6.6,5.4-12,12-12h89.39c6.6,0,12,5.4,12,12v61.04
				C131.24,456.94,125.84,462.34,119.24,462.34z"/>
		</defs>
		<clipPath id="SVGID_6_">
			<use xlink:href="#SVGID_5_"  style="overflow:visible;"/>
		</clipPath>
	</g>
	<g>
		<defs>
			<path id="SVGID_7_" d="M119.24,579.21H29.85c-6.6,0-12-5.4-12-12v-61.04c0-6.6,5.4-12,12-12h89.39c6.6,0,12,5.4,12,12v61.04
				C131.24,573.81,125.84,579.21,119.24,579.21z"/>
		</defs>
		<clipPath id="SVGID_8_">
			<use xlink:href="#SVGID_7_"  style="overflow:visible;"/>
		</clipPath>
	</g>
	<g>
		<defs>
			<path id="SVGID_9_" d="M119.24,696.07H29.85c-6.6,0-12-5.4-12-12v-61.04c0-6.6,5.4-12,12-12h89.39c6.6,0,12,5.4,12,12v61.04
				C131.24,690.67,125.84,696.07,119.24,696.07z"/>
		</defs>
		<clipPath id="SVGID_10_">
			<use xlink:href="#SVGID_9_"  style="overflow:visible;"/>
		</clipPath>
	</g>
</g>
<g id="テキスト">
	<g>
		<rect x="192.94" y="162.43" class="st1" width="385.99" height="663.48"/>
		<path class="st2" d="M193.54,167.76c0.06-0.34,0.37-0.6,0.95-0.77c0.34-0.11,0.72-0.06,1.12,0.17c0.74,0.46,1.49,0.89,2.23,1.29
			c0.23,0,0.43,0,0.6,0c0.63-0.06,1.83-0.14,3.61-0.26c1.49-0.11,2.63-0.2,3.44-0.26l1.03-1.03c0.52,0.4,0.97,0.77,1.38,1.12
			c0.74,0.63,1.15,1.09,1.2,1.38c0.06,0.23,0,0.4-0.17,0.52c-0.12,0.12-0.32,0.2-0.6,0.26c-0.12,0.8-0.34,2.29-0.69,4.47l-0.43,2.41
			c0.52,0.17,0.86,0.49,1.03,0.95c0.17,0.69,0,1.06-0.52,1.12c-0.63-0.06-1.8-0.11-3.52-0.17c-0.57,0-1.83,0.06-3.78,0.17
			c-0.86,0.06-1.66,0.17-2.41,0.34c0,0.34-0.06,0.6-0.17,0.77c-0.23,0.34-0.69,0.37-1.38,0.09c-0.34-0.11-0.54-0.26-0.6-0.43
			c-0.06-0.17-0.12-0.63-0.17-1.38c-0.06-0.92-0.12-1.66-0.17-2.23c-0.46-4.75-0.72-7.28-0.77-7.56
			C194.63,168.3,194.23,167.99,193.54,167.76z M205.57,169.48c-1.43,0.06-3.24,0.23-5.41,0.52c-0.57,0.06-0.97,0.12-1.2,0.17
			c-0.34,0.23-0.63,0.2-0.86-0.09l-0.69-0.6c0.06,1.72,0.14,3.44,0.26,5.16l0.26,3.01l3.61-0.26l3.52-0.26l0.43-4.73
			C205.54,171.94,205.57,170.97,205.57,169.48z"/>
		<path class="st2" d="M225.68,172.14c0.74-0.52,1.43-0.6,2.06-0.26c0.23,0.12,0.52,0.34,0.86,0.69c0.11,0.12,0.26,0.23,0.43,0.34
			c0.17,0.17,0.29,0.34,0.34,0.52c0.23,0.69,0.03,1.06-0.6,1.12c-0.8-0.11-1.89-0.17-3.27-0.17c-1.72,0-3.01,0.03-3.87,0.09
			c-2.92,0.12-4.93,0.23-6.02,0.34l-1.55,0.17c-0.57,0.06-0.95,0.14-1.12,0.26c-0.4,0.46-0.89,0.32-1.46-0.43
			c-0.23-0.29-0.43-0.54-0.6-0.77c-0.57-0.74-0.75-1.4-0.52-1.98c0.17-0.4,0.34-0.6,0.52-0.6c0.17,0.46,0.43,0.83,0.77,1.12
			c0.23,0.17,0.63,0.23,1.2,0.17c0.74-0.06,2.49-0.14,5.24-0.26C221.21,172.37,223.74,172.25,225.68,172.14z"/>
		<path class="st2" d="M243.21,165.87c0.63,0.4,1.23,0.83,1.8,1.29c0.69,0.57,0.97,1.03,0.86,1.38c-0.06,0.29-0.43,0.46-1.12,0.52
			c-1.72,2.41-3.12,4.24-4.21,5.5c0.97,0.23,1.52,0.37,1.63,0.43c0.92,0.29,1.86,0.72,2.84,1.29c1.49,0.92,2.35,1.95,2.58,3.09
			c0.17,0.97-0.14,1.58-0.95,1.8c-0.52,0.17-0.97,0-1.38-0.52c-0.23-0.29-0.54-0.8-0.95-1.55c-1.03-1.78-2.41-3.18-4.13-4.21
			c-0.46,0.46-0.95,0.92-1.46,1.38c-1.72,1.55-3.64,2.78-5.76,3.7l-2.41,1.03c-0.52,0.17-0.57,0.06-0.17-0.34
			c0.97-0.57,1.69-1.03,2.15-1.38c1.95-1.32,3.64-2.89,5.07-4.73c1.26-1.55,2.58-3.55,3.95-6.02c-1.78,0.23-2.98,0.43-3.61,0.6
			l-1.38,0.34c-0.52,0.12-0.86,0.23-1.03,0.34c-0.29,0.17-0.52,0.32-0.69,0.43c-0.29,0.12-0.86-0.23-1.72-1.03
			c-0.63-0.63-0.89-1.32-0.77-2.06c0.06-0.34,0.2-0.54,0.43-0.6c0.34,0.69,0.74,1.09,1.2,1.2c0.23,0.06,0.77,0.03,1.63-0.09
			l2.84-0.34l3.7-0.43L243.21,165.87z"/>
		<path class="st2" d="M264.44,176.01c-0.69,0-1.29-0.26-1.8-0.77s-0.77-1.12-0.77-1.8s0.26-1.29,0.77-1.8s1.12-0.77,1.8-0.77
			s1.29,0.26,1.8,0.77s0.77,1.12,0.77,1.8s-0.26,1.29-0.77,1.8S265.13,176.01,264.44,176.01z"/>
		<path class="st2" d="M275.44,176.01c-0.69,0-1.29-0.26-1.8-0.77s-0.77-1.12-0.77-1.8s0.26-1.29,0.77-1.8s1.12-0.77,1.8-0.77
			s1.29,0.26,1.8,0.77s0.77,1.12,0.77,1.8s-0.26,1.29-0.77,1.8S276.13,176.01,275.44,176.01z"/>
		<path class="st2" d="M286.44,176.01c-0.69,0-1.29-0.26-1.8-0.77s-0.77-1.12-0.77-1.8s0.26-1.29,0.77-1.8s1.12-0.77,1.8-0.77
			s1.29,0.26,1.8,0.77s0.77,1.12,0.77,1.8s-0.26,1.29-0.77,1.8S287.13,176.01,286.44,176.01z"/>
		<path class="st2" d="M297.44,176.01c-0.69,0-1.29-0.26-1.8-0.77s-0.77-1.12-0.77-1.8s0.26-1.29,0.77-1.8s1.12-0.77,1.8-0.77
			s1.29,0.26,1.8,0.77s0.77,1.12,0.77,1.8s-0.26,1.29-0.77,1.8S298.13,176.01,297.44,176.01z"/>
		<path class="st2" d="M308.44,176.01c-0.69,0-1.29-0.26-1.8-0.77c-0.51-0.52-0.77-1.12-0.77-1.8s0.26-1.29,0.77-1.8
			c0.52-0.52,1.12-0.77,1.8-0.77s1.29,0.26,1.8,0.77s0.77,1.12,0.77,1.8s-0.26,1.29-0.77,1.8S309.13,176.01,308.44,176.01z"/>
		<path class="st2" d="M319.44,176.01c-0.69,0-1.29-0.26-1.8-0.77s-0.77-1.12-0.77-1.8s0.26-1.29,0.77-1.8s1.12-0.77,1.8-0.77
			s1.29,0.26,1.8,0.77s0.77,1.12,0.77,1.8s-0.26,1.29-0.77,1.8S320.13,176.01,319.44,176.01z"/>
		<path class="st2" d="M330.44,176.01c-0.69,0-1.29-0.26-1.8-0.77s-0.77-1.12-0.77-1.8s0.26-1.29,0.77-1.8s1.12-0.77,1.8-0.77
			s1.29,0.26,1.8,0.77s0.77,1.12,0.77,1.8s-0.26,1.29-0.77,1.8S331.13,176.01,330.44,176.01z"/>
		<path class="st2" d="M341.44,176.01c-0.69,0-1.29-0.26-1.8-0.77s-0.77-1.12-0.77-1.8s0.26-1.29,0.77-1.8s1.12-0.77,1.8-0.77
			s1.29,0.26,1.8,0.77s0.77,1.12,0.77,1.8s-0.26,1.29-0.77,1.8S342.13,176.01,341.44,176.01z"/>
		<path class="st2" d="M352.44,176.01c-0.69,0-1.29-0.26-1.8-0.77s-0.77-1.12-0.77-1.8s0.26-1.29,0.77-1.8s1.12-0.77,1.8-0.77
			s1.29,0.26,1.8,0.77s0.77,1.12,0.77,1.8s-0.26,1.29-0.77,1.8S353.13,176.01,352.44,176.01z"/>
		<path class="st2" d="M363.44,176.01c-0.69,0-1.29-0.26-1.8-0.77s-0.77-1.12-0.77-1.8s0.26-1.29,0.77-1.8s1.12-0.77,1.8-0.77
			s1.29,0.26,1.8,0.77s0.77,1.12,0.77,1.8s-0.26,1.29-0.77,1.8S364.13,176.01,363.44,176.01z"/>
		<path class="st2" d="M374.44,176.01c-0.69,0-1.29-0.26-1.8-0.77s-0.77-1.12-0.77-1.8s0.26-1.29,0.77-1.8s1.12-0.77,1.8-0.77
			s1.29,0.26,1.8,0.77s0.77,1.12,0.77,1.8s-0.26,1.29-0.77,1.8S375.13,176.01,374.44,176.01z"/>
		<path class="st2" d="M385.44,176.01c-0.69,0-1.29-0.26-1.8-0.77s-0.77-1.12-0.77-1.8s0.26-1.29,0.77-1.8s1.12-0.77,1.8-0.77
			s1.29,0.26,1.8,0.77s0.77,1.12,0.77,1.8s-0.26,1.29-0.77,1.8S386.13,176.01,385.44,176.01z"/>
		<path class="st2" d="M396.44,176.01c-0.69,0-1.29-0.26-1.8-0.77s-0.77-1.12-0.77-1.8s0.26-1.29,0.77-1.8s1.12-0.77,1.8-0.77
			s1.29,0.26,1.8,0.77s0.77,1.12,0.77,1.8s-0.26,1.29-0.77,1.8S397.13,176.01,396.44,176.01z"/>
		<path class="st2" d="M407.44,176.01c-0.69,0-1.29-0.26-1.8-0.77s-0.77-1.12-0.77-1.8s0.26-1.29,0.77-1.8s1.12-0.77,1.8-0.77
			s1.29,0.26,1.8,0.77s0.77,1.12,0.77,1.8s-0.26,1.29-0.77,1.8S408.13,176.01,407.44,176.01z"/>
		<path class="st2" d="M418.44,176.01c-0.69,0-1.29-0.26-1.8-0.77s-0.77-1.12-0.77-1.8s0.26-1.29,0.77-1.8s1.12-0.77,1.8-0.77
			s1.29,0.26,1.8,0.77s0.77,1.12,0.77,1.8s-0.26,1.29-0.77,1.8S419.13,176.01,418.44,176.01z"/>
		<path class="st2" d="M429.44,176.01c-0.69,0-1.29-0.26-1.8-0.77s-0.77-1.12-0.77-1.8s0.26-1.29,0.77-1.8s1.12-0.77,1.8-0.77
			s1.29,0.26,1.8,0.77s0.77,1.12,0.77,1.8s-0.26,1.29-0.77,1.8S430.13,176.01,429.44,176.01z"/>
		<path class="st2" d="M440.44,176.01c-0.69,0-1.29-0.26-1.8-0.77s-0.77-1.12-0.77-1.8s0.26-1.29,0.77-1.8s1.12-0.77,1.8-0.77
			s1.29,0.26,1.8,0.77s0.77,1.12,0.77,1.8s-0.26,1.29-0.77,1.8S441.13,176.01,440.44,176.01z"/>
		<path class="st2" d="M451.67,171.28h3.87l-2.41-4.04c-0.52-0.86-1.26-1.29-2.23-1.29v-0.69h7.39v0.69c-0.8-0.06-1.4,0.03-1.8,0.26
			c-0.29,0.29-0.2,0.83,0.26,1.63l2.06,3.44h2.66l2.06-3.61c0.34-0.57,0.34-1,0-1.29c-0.29-0.29-0.97-0.43-2.06-0.43v-0.69h5.84
			v0.69c-0.8,0-1.32,0.06-1.55,0.17c-0.52,0.29-0.97,0.8-1.38,1.55l-2.06,3.61h4.3v0.69h-4.73l-1.2,2.15v0.95h5.93v0.69h-5.93v3.18
			c0,0.69,0.14,1.15,0.43,1.38c0.4,0.29,1.03,0.43,1.89,0.43v0.6h-7.65v-0.6c1.03,0,1.66-0.11,1.89-0.34
			c0.34-0.29,0.52-0.77,0.52-1.46v-3.18h-6.1v-0.69h6.1l-1.8-3.09h-4.3V171.28z M459.14,171.97l0.95,1.63l0.95-1.63H459.14z"/>
		<path class="st2" d="M477.36,174.03c-0.46,0.63-0.95,1-1.46,1.12c-0.92,0.23-1.75,0.14-2.49-0.26c-1.32-0.69-1.98-2.06-1.98-4.13
			c0-1.78,0.54-3.21,1.63-4.3c0.74-0.74,1.6-1.12,2.58-1.12c0.97,0,1.83,0.37,2.58,1.12c1.15,1.15,1.72,2.92,1.72,5.33
			c0,2.35-0.2,4.15-0.6,5.41c-0.4,1.26-0.97,2.26-1.72,3.01c-0.92,0.92-1.89,1.38-2.92,1.38c-0.97,0-1.72-0.26-2.23-0.77
			s-0.77-1.09-0.77-1.72c0-0.69,0.23-1.17,0.69-1.46c0.57-0.23,1.06-0.14,1.46,0.26c0.23,0.23,0.34,0.6,0.34,1.12
			c0,0.69-0.32,1.15-0.95,1.38c0.06,0.23,0.2,0.37,0.43,0.43c0.63,0.23,1.29,0.14,1.98-0.26c0.8-0.52,1.32-1.6,1.55-3.27
			C477.36,176.09,477.42,175,477.36,174.03z M477.36,169.99c0-1.32-0.2-2.38-0.6-3.18c-0.34-0.69-0.83-0.95-1.46-0.77
			c-0.69,0.17-1.15,0.86-1.38,2.06c-0.12,0.92-0.14,1.86-0.09,2.84c0.06,1.2,0.23,2.06,0.52,2.58c0.52,0.86,1.2,1.03,2.06,0.52
			c0.63-0.4,0.95-1.23,0.95-2.49V169.99z"/>
		<path class="st2" d="M487.07,181.68c-0.8,0-1.55-0.34-2.23-1.03c-1.09-1.09-1.8-2.95-2.15-5.59c-0.12-1.09-0.12-2.18,0-3.27
			c0.34-2.58,1.06-4.41,2.15-5.5c0.63-0.63,1.38-0.95,2.23-0.95s1.6,0.32,2.23,0.95c1.09,1.09,1.8,2.92,2.15,5.5
			c0.11,1.09,0.11,2.18,0,3.27c-0.34,2.64-1.06,4.5-2.15,5.59C488.62,181.33,487.88,181.68,487.07,181.68z M487.07,180.99
			c0.34,0,0.66-0.14,0.95-0.43c0.69-0.69,1.03-3.06,1.03-7.13c0-3.95-0.34-6.27-1.03-6.96c-0.29-0.29-0.6-0.43-0.95-0.43
			s-0.66,0.14-0.95,0.43c-0.69,0.69-1.03,3.01-1.03,6.96c0,4.07,0.34,6.45,1.03,7.13C486.42,180.85,486.73,180.99,487.07,180.99z"/>
		<path class="st2" d="M498.5,181.68c-0.8,0-1.55-0.34-2.23-1.03c-1.09-1.09-1.8-2.95-2.15-5.59c-0.12-1.09-0.12-2.18,0-3.27
			c0.34-2.58,1.06-4.41,2.15-5.5c0.63-0.63,1.38-0.95,2.23-0.95s1.6,0.32,2.23,0.95c1.09,1.09,1.8,2.92,2.15,5.5
			c0.11,1.09,0.11,2.18,0,3.27c-0.34,2.64-1.06,4.5-2.15,5.59C500.05,181.33,499.31,181.68,498.5,181.68z M498.5,180.99
			c0.34,0,0.66-0.14,0.95-0.43c0.69-0.69,1.03-3.06,1.03-7.13c0-3.95-0.34-6.27-1.03-6.96c-0.29-0.29-0.6-0.43-0.95-0.43
			s-0.66,0.14-0.95,0.43c-0.69,0.69-1.03,3.01-1.03,6.96c0,4.07,0.34,6.45,1.03,7.13C497.84,180.85,498.16,180.99,498.5,180.99z"/>
		<path class="st2" d="M202.91,286.35c-0.69,2.41-1.55,4.38-2.58,5.93c-1.32,2.06-3.15,3.72-5.5,4.98c-1.2,0.63-1.58,0.72-1.12,0.26
			l0.6-0.52c0.69-0.57,1.2-1.06,1.55-1.46c1.26-1.38,2.23-2.86,2.92-4.47c0.74-1.78,1.26-3.24,1.55-4.38
			c-0.57,0.06-1.58,0.26-3.01,0.6l-0.34,0.17c-0.23,0.12-0.54,0.03-0.95-0.26c-0.75-0.57-1.26-1.06-1.55-1.46
			c-0.17-0.23-0.26-0.49-0.26-0.77v-0.26c0-0.4,0.14-0.6,0.43-0.6c0.57,0.92,1.29,1.32,2.15,1.2l3.87-0.43
			c0.06-0.4,0.17-1.12,0.34-2.15s0.2-1.66,0.09-1.89c-0.06-0.17-0.52-0.46-1.38-0.86c0.17-0.29,0.37-0.52,0.6-0.69
			c0.29-0.17,0.66-0.17,1.12,0c0.97,0.4,1.75,0.8,2.32,1.2c0.86,0.69,0.95,1.12,0.26,1.29c-0.17,0.23-0.29,0.49-0.34,0.77
			c-0.17,0.8-0.32,1.52-0.43,2.15l4.21-0.34l0.95-1.2c0.52,0.4,1.06,0.95,1.63,1.63c0.69,0.75,0.95,1.26,0.77,1.55
			c-0.29,0.17-0.6,0.32-0.95,0.43c-0.17,0.86-0.34,1.75-0.52,2.66c-0.12,0.69-0.34,1.52-0.69,2.49c-0.4,1.2-0.77,2.15-1.12,2.84
			c-0.52,1.03-1.12,1.72-1.8,2.06c-0.8,0.46-1.38,0.6-1.72,0.43c-0.23-0.17-0.34-0.46-0.34-0.86c0-0.34-0.03-0.66-0.09-0.95
			c-0.86-0.8-1.78-1.63-2.75-2.49c-0.12-0.23-0.03-0.31,0.26-0.26c0.69,0.34,1.52,0.69,2.49,1.03c0.69,0.23,1.17,0.26,1.46,0.09
			c0.23-0.17,0.46-0.49,0.69-0.95c0.4-0.86,0.69-1.72,0.86-2.58c0.4-1.66,0.69-3.09,0.86-4.3L202.91,286.35z"/>
		<path class="st2" d="M219.24,286.61c-0.34,2.01-0.8,3.67-1.38,4.98c-0.86,1.89-2.03,3.47-3.52,4.73c-0.69,0.63-1.29,1.12-1.8,1.46
			c-0.29,0.11-0.34,0.03-0.17-0.26l0.6-0.77c0.57-0.74,1.06-1.49,1.46-2.23c0.63-1.2,1.09-2.41,1.38-3.61
			c0.34-1.43,0.54-2.52,0.6-3.27l0.09-1.29c0.06-0.86-0.2-1.4-0.77-1.63l-0.6-0.26c0.46-0.46,0.89-0.72,1.29-0.77
			c0.23-0.06,0.49,0,0.77,0.17c0.4,0.23,0.69,0.4,0.86,0.52c0.97,0.57,1.52,0.97,1.63,1.2C219.84,285.86,219.7,286.21,219.24,286.61
			z M221.39,294.86l0.09-4.64v-7.48c0-0.34-0.14-0.6-0.43-0.77c-0.23-0.11-0.57-0.29-1.03-0.52c0.17-0.23,0.52-0.46,1.03-0.69
			c0.52-0.17,1.06-0.03,1.63,0.43c0.69,0.4,1.23,0.75,1.63,1.03c0.4,0.4,0.26,0.89-0.43,1.46c-0.06,0.75-0.12,2.15-0.17,4.21
			l-0.09,5.59c3.15-1.78,5.93-3.92,8.34-6.45c0.17-0.17,0.31-0.17,0.43,0c0.11,0.17-0.23,0.77-1.03,1.8
			c-0.69,0.92-1.17,1.52-1.46,1.8c-1.43,1.83-3.41,3.78-5.93,5.84c-0.4,1.32-0.86,1.63-1.38,0.95c-0.17-0.17-0.34-0.34-0.52-0.52
			l-1.63-1.46C220.73,295.23,221.04,295.03,221.39,294.86z"/>
		<path class="st2" d="M237.54,289.27c-0.06,1.78-0.09,2.98-0.09,3.61c0,0.57,0.09,0.97,0.26,1.2c0.29,0.4,0.97,0.6,2.06,0.6
			c1.43,0,2.78-0.06,4.04-0.17c0.92-0.06,1.52-0.14,1.8-0.26c0.17-0.06,0.34-0.14,0.52-0.26c0.34-0.11,0.63-0.14,0.86-0.09
			c0.46,0.17,0.89,0.52,1.29,1.03c0.29,0.46,0.23,0.92-0.17,1.38c-0.29,0.23-1.52,0.4-3.7,0.52c-0.75,0.06-1.75,0.09-3.01,0.09
			c-1.95,0.06-3.32-0.06-4.13-0.34c-0.75-0.23-1.26-0.57-1.55-1.03c-0.17-0.29-0.29-0.86-0.34-1.72c-0.06-2.06-0.09-3.78-0.09-5.16
			c0.06-3.04,0.09-4.98,0.09-5.84c0-0.52-0.03-0.83-0.09-0.95c-0.17-0.23-0.6-0.49-1.29-0.77c0.11-0.23,0.23-0.4,0.34-0.52
			c0.4-0.29,0.77-0.37,1.12-0.26c0.46,0.12,0.97,0.34,1.55,0.69c0.69,0.4,1.15,0.75,1.38,1.03c0.34,0.46,0.14,0.92-0.6,1.38
			c-0.17,2.29-0.26,4.01-0.26,5.16c0.4-0.11,0.97-0.34,1.72-0.69c1.66-0.74,2.86-1.35,3.61-1.8l1.46-0.95
			c0.57-0.34,0.69-0.66,0.34-0.95l-0.69-0.52c0.52-0.52,1.17-0.54,1.98-0.09c0.23,0.17,0.52,0.4,0.86,0.69
			c0.97,0.8,1.49,1.4,1.55,1.8c0.06,0.34-0.12,0.57-0.52,0.69c-0.34,0.12-0.66,0.17-0.95,0.17c-2.35,0.69-4.7,1.29-7.05,1.8
			L237.54,289.27z M248.29,284.12c-0.23,0-0.46-0.14-0.69-0.43c-0.17-0.29-0.43-0.66-0.77-1.12c-0.29-0.4-0.75-0.8-1.38-1.2
			c-0.34-0.23-0.29-0.31,0.17-0.26c1.66,0.17,2.78,0.75,3.35,1.72C249.26,283.57,249.03,284,248.29,284.12z M247.17,279.48
			c0.86,0,1.66,0.12,2.41,0.34c1.03,0.34,1.55,0.83,1.55,1.46c-0.06,1.03-0.6,1.17-1.63,0.43c-0.23-0.29-0.4-0.52-0.52-0.69
			c-0.52-0.57-1.12-1-1.8-1.29C246.94,279.62,246.94,279.53,247.17,279.48z"/>
		<path class="st2" d="M264.44,291.51c-0.69,0-1.29-0.26-1.8-0.77s-0.77-1.12-0.77-1.8s0.26-1.29,0.77-1.8s1.12-0.77,1.8-0.77
			s1.29,0.26,1.8,0.77s0.77,1.12,0.77,1.8s-0.26,1.29-0.77,1.8S265.13,291.51,264.44,291.51z"/>
		<path class="st2" d="M275.44,291.51c-0.69,0-1.29-0.26-1.8-0.77s-0.77-1.12-0.77-1.8s0.26-1.29,0.77-1.8s1.12-0.77,1.8-0.77
			s1.29,0.26,1.8,0.77s0.77,1.12,0.77,1.8s-0.26,1.29-0.77,1.8S276.13,291.51,275.44,291.51z"/>
		<path class="st2" d="M286.44,291.51c-0.69,0-1.29-0.26-1.8-0.77s-0.77-1.12-0.77-1.8s0.26-1.29,0.77-1.8s1.12-0.77,1.8-0.77
			s1.29,0.26,1.8,0.77s0.77,1.12,0.77,1.8s-0.26,1.29-0.77,1.8S287.13,291.51,286.44,291.51z"/>
		<path class="st2" d="M297.44,291.51c-0.69,0-1.29-0.26-1.8-0.77s-0.77-1.12-0.77-1.8s0.26-1.29,0.77-1.8s1.12-0.77,1.8-0.77
			s1.29,0.26,1.8,0.77s0.77,1.12,0.77,1.8s-0.26,1.29-0.77,1.8S298.13,291.51,297.44,291.51z"/>
		<path class="st2" d="M308.44,291.51c-0.69,0-1.29-0.26-1.8-0.77c-0.51-0.52-0.77-1.12-0.77-1.8s0.26-1.29,0.77-1.8
			c0.52-0.52,1.12-0.77,1.8-0.77s1.29,0.26,1.8,0.77s0.77,1.12,0.77,1.8s-0.26,1.29-0.77,1.8S309.13,291.51,308.44,291.51z"/>
		<path class="st2" d="M319.44,291.51c-0.69,0-1.29-0.26-1.8-0.77s-0.77-1.12-0.77-1.8s0.26-1.29,0.77-1.8s1.12-0.77,1.8-0.77
			s1.29,0.26,1.8,0.77s0.77,1.12,0.77,1.8s-0.26,1.29-0.77,1.8S320.13,291.51,319.44,291.51z"/>
		<path class="st2" d="M330.44,291.51c-0.69,0-1.29-0.26-1.8-0.77s-0.77-1.12-0.77-1.8s0.26-1.29,0.77-1.8s1.12-0.77,1.8-0.77
			s1.29,0.26,1.8,0.77s0.77,1.12,0.77,1.8s-0.26,1.29-0.77,1.8S331.13,291.51,330.44,291.51z"/>
		<path class="st2" d="M341.44,291.51c-0.69,0-1.29-0.26-1.8-0.77s-0.77-1.12-0.77-1.8s0.26-1.29,0.77-1.8s1.12-0.77,1.8-0.77
			s1.29,0.26,1.8,0.77s0.77,1.12,0.77,1.8s-0.26,1.29-0.77,1.8S342.13,291.51,341.44,291.51z"/>
		<path class="st2" d="M352.44,291.51c-0.69,0-1.29-0.26-1.8-0.77s-0.77-1.12-0.77-1.8s0.26-1.29,0.77-1.8s1.12-0.77,1.8-0.77
			s1.29,0.26,1.8,0.77s0.77,1.12,0.77,1.8s-0.26,1.29-0.77,1.8S353.13,291.51,352.44,291.51z"/>
		<path class="st2" d="M363.44,291.51c-0.69,0-1.29-0.26-1.8-0.77s-0.77-1.12-0.77-1.8s0.26-1.29,0.77-1.8s1.12-0.77,1.8-0.77
			s1.29,0.26,1.8,0.77s0.77,1.12,0.77,1.8s-0.26,1.29-0.77,1.8S364.13,291.51,363.44,291.51z"/>
		<path class="st2" d="M374.44,291.51c-0.69,0-1.29-0.26-1.8-0.77s-0.77-1.12-0.77-1.8s0.26-1.29,0.77-1.8s1.12-0.77,1.8-0.77
			s1.29,0.26,1.8,0.77s0.77,1.12,0.77,1.8s-0.26,1.29-0.77,1.8S375.13,291.51,374.44,291.51z"/>
		<path class="st2" d="M385.44,291.51c-0.69,0-1.29-0.26-1.8-0.77s-0.77-1.12-0.77-1.8s0.26-1.29,0.77-1.8s1.12-0.77,1.8-0.77
			s1.29,0.26,1.8,0.77s0.77,1.12,0.77,1.8s-0.26,1.29-0.77,1.8S386.13,291.51,385.44,291.51z"/>
		<path class="st2" d="M396.44,291.51c-0.69,0-1.29-0.26-1.8-0.77s-0.77-1.12-0.77-1.8s0.26-1.29,0.77-1.8s1.12-0.77,1.8-0.77
			s1.29,0.26,1.8,0.77s0.77,1.12,0.77,1.8s-0.26,1.29-0.77,1.8S397.13,291.51,396.44,291.51z"/>
		<path class="st2" d="M407.44,291.51c-0.69,0-1.29-0.26-1.8-0.77s-0.77-1.12-0.77-1.8s0.26-1.29,0.77-1.8s1.12-0.77,1.8-0.77
			s1.29,0.26,1.8,0.77s0.77,1.12,0.77,1.8s-0.26,1.29-0.77,1.8S408.13,291.51,407.44,291.51z"/>
		<path class="st2" d="M418.44,291.51c-0.69,0-1.29-0.26-1.8-0.77s-0.77-1.12-0.77-1.8s0.26-1.29,0.77-1.8s1.12-0.77,1.8-0.77
			s1.29,0.26,1.8,0.77s0.77,1.12,0.77,1.8s-0.26,1.29-0.77,1.8S419.13,291.51,418.44,291.51z"/>
		<path class="st2" d="M429.44,291.51c-0.69,0-1.29-0.26-1.8-0.77s-0.77-1.12-0.77-1.8s0.26-1.29,0.77-1.8s1.12-0.77,1.8-0.77
			s1.29,0.26,1.8,0.77s0.77,1.12,0.77,1.8s-0.26,1.29-0.77,1.8S430.13,291.51,429.44,291.51z"/>
		<path class="st2" d="M440.44,291.51c-0.69,0-1.29-0.26-1.8-0.77s-0.77-1.12-0.77-1.8s0.26-1.29,0.77-1.8s1.12-0.77,1.8-0.77
			s1.29,0.26,1.8,0.77s0.77,1.12,0.77,1.8s-0.26,1.29-0.77,1.8S441.13,291.51,440.44,291.51z"/>
		<path class="st2" d="M451.67,286.78h3.87l-2.41-4.04c-0.52-0.86-1.26-1.29-2.23-1.29v-0.69h7.39v0.69c-0.8-0.06-1.4,0.03-1.8,0.26
			c-0.29,0.29-0.2,0.83,0.26,1.63l2.06,3.44h2.66l2.06-3.61c0.34-0.57,0.34-1,0-1.29c-0.29-0.29-0.97-0.43-2.06-0.43v-0.69h5.84
			v0.69c-0.8,0-1.32,0.06-1.55,0.17c-0.52,0.29-0.97,0.8-1.38,1.55l-2.06,3.61h4.3v0.69h-4.73l-1.2,2.15v0.95h5.93v0.69h-5.93v3.18
			c0,0.69,0.14,1.15,0.43,1.38c0.4,0.29,1.03,0.43,1.89,0.43v0.6h-7.65v-0.6c1.03,0,1.66-0.11,1.89-0.34
			c0.34-0.29,0.52-0.77,0.52-1.46v-3.18h-6.1v-0.69h6.1l-1.8-3.09h-4.3V286.78z M459.14,287.47l0.95,1.63l0.95-1.63H459.14z"/>
		<path class="st2" d="M477.36,289.53c-0.46,0.63-0.95,1-1.46,1.12c-0.92,0.23-1.75,0.14-2.49-0.26c-1.32-0.69-1.98-2.06-1.98-4.13
			c0-1.78,0.54-3.21,1.63-4.3c0.74-0.74,1.6-1.12,2.58-1.12c0.97,0,1.83,0.37,2.58,1.12c1.15,1.15,1.72,2.92,1.72,5.33
			c0,2.35-0.2,4.15-0.6,5.41c-0.4,1.26-0.97,2.26-1.72,3.01c-0.92,0.92-1.89,1.38-2.92,1.38c-0.97,0-1.72-0.26-2.23-0.77
			s-0.77-1.09-0.77-1.72c0-0.69,0.23-1.17,0.69-1.46c0.57-0.23,1.06-0.14,1.46,0.26c0.23,0.23,0.34,0.6,0.34,1.12
			c0,0.69-0.32,1.15-0.95,1.38c0.06,0.23,0.2,0.37,0.43,0.43c0.63,0.23,1.29,0.14,1.98-0.26c0.8-0.52,1.32-1.6,1.55-3.27
			C477.36,291.59,477.42,290.5,477.36,289.53z M477.36,285.49c0-1.32-0.2-2.38-0.6-3.18c-0.34-0.69-0.83-0.95-1.46-0.77
			c-0.69,0.17-1.15,0.86-1.38,2.06c-0.12,0.92-0.14,1.86-0.09,2.84c0.06,1.2,0.23,2.06,0.52,2.58c0.52,0.86,1.2,1.03,2.06,0.52
			c0.63-0.4,0.95-1.23,0.95-2.49V285.49z"/>
		<path class="st2" d="M487.07,297.18c-0.8,0-1.55-0.34-2.23-1.03c-1.09-1.09-1.8-2.95-2.15-5.59c-0.12-1.09-0.12-2.18,0-3.27
			c0.34-2.58,1.06-4.41,2.15-5.5c0.63-0.63,1.38-0.95,2.23-0.95s1.6,0.32,2.23,0.95c1.09,1.09,1.8,2.92,2.15,5.5
			c0.11,1.09,0.11,2.18,0,3.27c-0.34,2.64-1.06,4.5-2.15,5.59C488.62,296.83,487.88,297.18,487.07,297.18z M487.07,296.49
			c0.34,0,0.66-0.14,0.95-0.43c0.69-0.69,1.03-3.06,1.03-7.13c0-3.95-0.34-6.27-1.03-6.96c-0.29-0.29-0.6-0.43-0.95-0.43
			s-0.66,0.14-0.95,0.43c-0.69,0.69-1.03,3.01-1.03,6.96c0,4.07,0.34,6.45,1.03,7.13C486.42,296.35,486.73,296.49,487.07,296.49z"/>
		<path class="st2" d="M498.5,297.18c-0.8,0-1.55-0.34-2.23-1.03c-1.09-1.09-1.8-2.95-2.15-5.59c-0.12-1.09-0.12-2.18,0-3.27
			c0.34-2.58,1.06-4.41,2.15-5.5c0.63-0.63,1.38-0.95,2.23-0.95s1.6,0.32,2.23,0.95c1.09,1.09,1.8,2.92,2.15,5.5
			c0.11,1.09,0.11,2.18,0,3.27c-0.34,2.64-1.06,4.5-2.15,5.59C500.05,296.83,499.31,297.18,498.5,297.18z M498.5,296.49
			c0.34,0,0.66-0.14,0.95-0.43c0.69-0.69,1.03-3.06,1.03-7.13c0-3.95-0.34-6.27-1.03-6.96c-0.29-0.29-0.6-0.43-0.95-0.43
			s-0.66,0.14-0.95,0.43c-0.69,0.69-1.03,3.01-1.03,6.96c0,4.07,0.34,6.45,1.03,7.13C497.84,296.35,498.16,296.49,498.5,296.49z"/>
		<path class="st2" d="M207.46,396.95c1.26,0.97,2.03,1.66,2.32,2.06c0.4,0.57,0.34,0.92-0.17,1.03l-0.6,0.17
			c-1.26,2.46-2.49,4.5-3.7,6.1c-1.49,2.01-3.12,3.58-4.9,4.73c-0.8,0.52-1.95,1.12-3.44,1.8c-1.03,0.46-1.69,0.74-1.98,0.86
			c-0.23,0.11-0.32,0.06-0.26-0.17c0.29-0.23,0.66-0.49,1.12-0.77c1.15-0.74,2.26-1.63,3.35-2.66c1.32-1.26,2.26-2.26,2.84-3.01
			c-0.46-0.06-0.83-0.34-1.12-0.86c-0.8-1.49-1.6-2.49-2.41-3.01c-1.38,1.55-2.87,2.78-4.47,3.7c-0.63,0.34-0.69,0.26-0.17-0.26
			c2.06-1.95,3.67-4.47,4.81-7.56c0.23-0.69,0.46-1.35,0.69-1.98c0.4-0.86,0.31-1.38-0.26-1.55l-0.52-0.34
			c0.29-0.46,0.72-0.66,1.29-0.6c0.34,0.06,0.86,0.29,1.55,0.69c0.8,0.46,1.26,0.83,1.38,1.12c0.11,0.29,0.09,0.52-0.09,0.69
			c-0.12,0.12-0.32,0.26-0.6,0.43c-0.12,0.23-0.29,0.54-0.52,0.95c2.92-0.4,4.64-0.66,5.16-0.77L207.46,396.95z M199.13,402.71
			c1.09,0.12,1.95,0.34,2.58,0.69c1.03,0.63,1.52,1.38,1.46,2.23c1.2-1.78,2.29-3.87,3.27-6.27c-1.55,0.12-2.98,0.34-4.3,0.69
			c-0.4,0.29-0.83,0.26-1.29-0.09c-0.29,0.46-0.54,0.89-0.77,1.29C199.79,401.71,199.47,402.19,199.13,402.71z"/>
		<path class="st2" d="M216.75,402.8c-0.86,0.12-1.52-0.52-1.98-1.89c-0.52-1.26-1.23-2.21-2.15-2.84c-0.4-0.29-0.77-0.52-1.12-0.69
			c-0.17-0.11-0.14-0.2,0.09-0.26c0.29-0.06,1.09,0.06,2.41,0.34c2.29,0.52,3.58,1.55,3.87,3.09
			C218.09,401.94,217.72,402.68,216.75,402.8z M212.19,409.07c0.23,0.4,0.43,0.75,0.6,1.03c0.11,0.17,0.43,0.17,0.95,0
			c1.15-0.34,2.49-0.92,4.04-1.72c1.38-0.69,2.66-1.43,3.87-2.23c2.41-1.55,4.55-3.24,6.45-5.07c0.06-0.06,0.17-0.17,0.34-0.34
			c0.69-0.46,0.83-0.34,0.43,0.34c-1.49,2.18-3.41,4.33-5.76,6.45c-2.01,1.83-4.53,3.55-7.56,5.16c-0.29,0.57-0.52,0.89-0.69,0.95
			c-0.4,0.11-1.12-0.37-2.15-1.46c-0.46-0.46-0.75-0.8-0.86-1.03C211.5,410.22,211.62,409.53,212.19,409.07z"/>
		<path class="st2" d="M235.31,408.55c0.74-0.17,1.43-0.37,2.06-0.6c0.63,0,0.66,0.2,0.09,0.6c-0.86,0.57-2.29,1.43-4.3,2.58
			l-0.26,0.6c-0.29,0.69-0.63,0.72-1.03,0.09l-1.38-2.06c1.2-0.23,2.12-0.43,2.75-0.6v-7.48h-2.58l-0.26-0.6h2.84v-5.93l2.41,0.34
			c0.57,0.17,0.63,0.46,0.17,0.86l-0.52,0.26v4.47h0.17l1.12-1.63l1.38,1.46c0.57-1.15,1.03-2.52,1.38-4.13l0.52-2.23l2.49,1.03
			c0.46,0.4,0.49,0.72,0.09,0.95l-0.52,0.17c-0.23,0.57-0.49,1.15-0.77,1.72H247l1.63-2.06l2.15,1.89c0.4,0.4,0.34,0.66-0.17,0.77
			h-9.71c-0.34,0.52-0.72,1.03-1.12,1.55l1.38,0.77h4.47l0.77-1.2l2.06,1.8c0.34,0.34,0.29,0.6-0.17,0.77l-0.26,0.09v3.18
			c0,0.29-0.43,0.49-1.29,0.6c-0.17,0-0.37,0-0.6,0c-0.23,0-0.34-0.09-0.34-0.26v-1.03h-4.64v0.77c0,0.34-0.43,0.57-1.29,0.69
			c-0.17,0-0.34,0-0.52,0c-0.29,0-0.43-0.11-0.43-0.34v-4.47c-0.8,0.92-1.49,1.6-2.06,2.06c-0.34,0.17-0.46,0.12-0.34-0.17
			c0.4-0.69,0.77-1.4,1.12-2.15h-2.32V408.55z M249.75,411.3l1.29,1.72c0.29,0.4,0.26,0.66-0.09,0.77h-15.55l-0.26-0.6h2.92v-6.53
			l2.23,1.12h6.02l0.77-1.03l1.72,1.46c0.34,0.29,0.31,0.57-0.09,0.86l-0.26,0.17v3.95h0.26L249.75,411.3z M240.12,413.19h0.95
			v-4.81h-0.95V413.19z M241.15,404.69h4.64v-2.75h-4.64V404.69z M242.61,408.38v4.81h1.03v-4.81H242.61z M245.19,408.38v4.81h1.2
			v-4.81H245.19z"/>
		<path class="st2" d="M264.44,407.01c-0.69,0-1.29-0.26-1.8-0.77s-0.77-1.12-0.77-1.8s0.26-1.29,0.77-1.8s1.12-0.77,1.8-0.77
			s1.29,0.26,1.8,0.77s0.77,1.12,0.77,1.8s-0.26,1.29-0.77,1.8S265.13,407.01,264.44,407.01z"/>
		<path class="st2" d="M275.44,407.01c-0.69,0-1.29-0.26-1.8-0.77s-0.77-1.12-0.77-1.8s0.26-1.29,0.77-1.8s1.12-0.77,1.8-0.77
			s1.29,0.26,1.8,0.77s0.77,1.12,0.77,1.8s-0.26,1.29-0.77,1.8S276.13,407.01,275.44,407.01z"/>
		<path class="st2" d="M286.44,407.01c-0.69,0-1.29-0.26-1.8-0.77s-0.77-1.12-0.77-1.8s0.26-1.29,0.77-1.8s1.12-0.77,1.8-0.77
			s1.29,0.26,1.8,0.77s0.77,1.12,0.77,1.8s-0.26,1.29-0.77,1.8S287.13,407.01,286.44,407.01z"/>
		<path class="st2" d="M297.44,407.01c-0.69,0-1.29-0.26-1.8-0.77s-0.77-1.12-0.77-1.8s0.26-1.29,0.77-1.8s1.12-0.77,1.8-0.77
			s1.29,0.26,1.8,0.77s0.77,1.12,0.77,1.8s-0.26,1.29-0.77,1.8S298.13,407.01,297.44,407.01z"/>
		<path class="st2" d="M308.44,407.01c-0.69,0-1.29-0.26-1.8-0.77c-0.51-0.52-0.77-1.12-0.77-1.8s0.26-1.29,0.77-1.8
			c0.52-0.52,1.12-0.77,1.8-0.77s1.29,0.26,1.8,0.77s0.77,1.12,0.77,1.8s-0.26,1.29-0.77,1.8S309.13,407.01,308.44,407.01z"/>
		<path class="st2" d="M319.44,407.01c-0.69,0-1.29-0.26-1.8-0.77s-0.77-1.12-0.77-1.8s0.26-1.29,0.77-1.8s1.12-0.77,1.8-0.77
			s1.29,0.26,1.8,0.77s0.77,1.12,0.77,1.8s-0.26,1.29-0.77,1.8S320.13,407.01,319.44,407.01z"/>
		<path class="st2" d="M330.44,407.01c-0.69,0-1.29-0.26-1.8-0.77s-0.77-1.12-0.77-1.8s0.26-1.29,0.77-1.8s1.12-0.77,1.8-0.77
			s1.29,0.26,1.8,0.77s0.77,1.12,0.77,1.8s-0.26,1.29-0.77,1.8S331.13,407.01,330.44,407.01z"/>
		<path class="st2" d="M341.44,407.01c-0.69,0-1.29-0.26-1.8-0.77s-0.77-1.12-0.77-1.8s0.26-1.29,0.77-1.8s1.12-0.77,1.8-0.77
			s1.29,0.26,1.8,0.77s0.77,1.12,0.77,1.8s-0.26,1.29-0.77,1.8S342.13,407.01,341.44,407.01z"/>
		<path class="st2" d="M352.44,407.01c-0.69,0-1.29-0.26-1.8-0.77s-0.77-1.12-0.77-1.8s0.26-1.29,0.77-1.8s1.12-0.77,1.8-0.77
			s1.29,0.26,1.8,0.77s0.77,1.12,0.77,1.8s-0.26,1.29-0.77,1.8S353.13,407.01,352.44,407.01z"/>
		<path class="st2" d="M363.44,407.01c-0.69,0-1.29-0.26-1.8-0.77s-0.77-1.12-0.77-1.8s0.26-1.29,0.77-1.8s1.12-0.77,1.8-0.77
			s1.29,0.26,1.8,0.77s0.77,1.12,0.77,1.8s-0.26,1.29-0.77,1.8S364.13,407.01,363.44,407.01z"/>
		<path class="st2" d="M374.44,407.01c-0.69,0-1.29-0.26-1.8-0.77s-0.77-1.12-0.77-1.8s0.26-1.29,0.77-1.8s1.12-0.77,1.8-0.77
			s1.29,0.26,1.8,0.77s0.77,1.12,0.77,1.8s-0.26,1.29-0.77,1.8S375.13,407.01,374.44,407.01z"/>
		<path class="st2" d="M385.44,407.01c-0.69,0-1.29-0.26-1.8-0.77s-0.77-1.12-0.77-1.8s0.26-1.29,0.77-1.8s1.12-0.77,1.8-0.77
			s1.29,0.26,1.8,0.77s0.77,1.12,0.77,1.8s-0.26,1.29-0.77,1.8S386.13,407.01,385.44,407.01z"/>
		<path class="st2" d="M396.44,407.01c-0.69,0-1.29-0.26-1.8-0.77s-0.77-1.12-0.77-1.8s0.26-1.29,0.77-1.8s1.12-0.77,1.8-0.77
			s1.29,0.26,1.8,0.77s0.77,1.12,0.77,1.8s-0.26,1.29-0.77,1.8S397.13,407.01,396.44,407.01z"/>
		<path class="st2" d="M407.44,407.01c-0.69,0-1.29-0.26-1.8-0.77s-0.77-1.12-0.77-1.8s0.26-1.29,0.77-1.8s1.12-0.77,1.8-0.77
			s1.29,0.26,1.8,0.77s0.77,1.12,0.77,1.8s-0.26,1.29-0.77,1.8S408.13,407.01,407.44,407.01z"/>
		<path class="st2" d="M418.44,407.01c-0.69,0-1.29-0.26-1.8-0.77s-0.77-1.12-0.77-1.8s0.26-1.29,0.77-1.8s1.12-0.77,1.8-0.77
			s1.29,0.26,1.8,0.77s0.77,1.12,0.77,1.8s-0.26,1.29-0.77,1.8S419.13,407.01,418.44,407.01z"/>
		<path class="st2" d="M429.44,407.01c-0.69,0-1.29-0.26-1.8-0.77s-0.77-1.12-0.77-1.8s0.26-1.29,0.77-1.8s1.12-0.77,1.8-0.77
			s1.29,0.26,1.8,0.77s0.77,1.12,0.77,1.8s-0.26,1.29-0.77,1.8S430.13,407.01,429.44,407.01z"/>
		<path class="st2" d="M440.44,407.01c-0.69,0-1.29-0.26-1.8-0.77s-0.77-1.12-0.77-1.8s0.26-1.29,0.77-1.8s1.12-0.77,1.8-0.77
			s1.29,0.26,1.8,0.77s0.77,1.12,0.77,1.8s-0.26,1.29-0.77,1.8S441.13,407.01,440.44,407.01z"/>
		<path class="st2" d="M451.67,402.28h3.87l-2.41-4.04c-0.52-0.86-1.26-1.29-2.23-1.29v-0.69h7.39v0.69c-0.8-0.06-1.4,0.03-1.8,0.26
			c-0.29,0.29-0.2,0.83,0.26,1.63l2.06,3.44h2.66l2.06-3.61c0.34-0.57,0.34-1,0-1.29c-0.29-0.29-0.97-0.43-2.06-0.43v-0.69h5.84
			v0.69c-0.8,0-1.32,0.06-1.55,0.17c-0.52,0.29-0.97,0.8-1.38,1.55l-2.06,3.61h4.3v0.69h-4.73l-1.2,2.15v0.95h5.93v0.69h-5.93v3.18
			c0,0.69,0.14,1.15,0.43,1.38c0.4,0.29,1.03,0.43,1.89,0.43v0.6h-7.65v-0.6c1.03,0,1.66-0.11,1.89-0.34
			c0.34-0.29,0.52-0.77,0.52-1.46v-3.18h-6.1v-0.69h6.1l-1.8-3.09h-4.3V402.28z M459.14,402.97l0.95,1.63l0.95-1.63H459.14z"/>
		<path class="st2" d="M477.36,405.03c-0.46,0.63-0.95,1-1.46,1.12c-0.92,0.23-1.75,0.14-2.49-0.26c-1.32-0.69-1.98-2.06-1.98-4.13
			c0-1.78,0.54-3.21,1.63-4.3c0.74-0.74,1.6-1.12,2.58-1.12c0.97,0,1.83,0.37,2.58,1.12c1.15,1.15,1.72,2.92,1.72,5.33
			c0,2.35-0.2,4.15-0.6,5.41c-0.4,1.26-0.97,2.26-1.72,3.01c-0.92,0.92-1.89,1.38-2.92,1.38c-0.97,0-1.72-0.26-2.23-0.77
			s-0.77-1.09-0.77-1.72c0-0.69,0.23-1.17,0.69-1.46c0.57-0.23,1.06-0.14,1.46,0.26c0.23,0.23,0.34,0.6,0.34,1.12
			c0,0.69-0.32,1.15-0.95,1.38c0.06,0.23,0.2,0.37,0.43,0.43c0.63,0.23,1.29,0.14,1.98-0.26c0.8-0.52,1.32-1.6,1.55-3.27
			C477.36,407.09,477.42,406,477.36,405.03z M477.36,400.99c0-1.32-0.2-2.38-0.6-3.18c-0.34-0.69-0.83-0.95-1.46-0.77
			c-0.69,0.17-1.15,0.86-1.38,2.06c-0.12,0.92-0.14,1.86-0.09,2.84c0.06,1.2,0.23,2.06,0.52,2.58c0.52,0.86,1.2,1.03,2.06,0.52
			c0.63-0.4,0.95-1.23,0.95-2.49V400.99z"/>
		<path class="st2" d="M487.07,412.68c-0.8,0-1.55-0.34-2.23-1.03c-1.09-1.09-1.8-2.95-2.15-5.59c-0.12-1.09-0.12-2.18,0-3.27
			c0.34-2.58,1.06-4.41,2.15-5.5c0.63-0.63,1.38-0.95,2.23-0.95s1.6,0.32,2.23,0.95c1.09,1.09,1.8,2.92,2.15,5.5
			c0.11,1.09,0.11,2.18,0,3.27c-0.34,2.64-1.06,4.5-2.15,5.59C488.62,412.33,487.88,412.68,487.07,412.68z M487.07,411.99
			c0.34,0,0.66-0.14,0.95-0.43c0.69-0.69,1.03-3.06,1.03-7.13c0-3.95-0.34-6.27-1.03-6.96c-0.29-0.29-0.6-0.43-0.95-0.43
			s-0.66,0.14-0.95,0.43c-0.69,0.69-1.03,3.01-1.03,6.96c0,4.07,0.34,6.45,1.03,7.13C486.42,411.85,486.73,411.99,487.07,411.99z"/>
		<path class="st2" d="M498.5,412.68c-0.8,0-1.55-0.34-2.23-1.03c-1.09-1.09-1.8-2.95-2.15-5.59c-0.12-1.09-0.12-2.18,0-3.27
			c0.34-2.58,1.06-4.41,2.15-5.5c0.63-0.63,1.38-0.95,2.23-0.95s1.6,0.32,2.23,0.95c1.09,1.09,1.8,2.92,2.15,5.5
			c0.11,1.09,0.11,2.18,0,3.27c-0.34,2.64-1.06,4.5-2.15,5.59C500.05,412.33,499.31,412.68,498.5,412.68z M498.5,411.99
			c0.34,0,0.66-0.14,0.95-0.43c0.69-0.69,1.03-3.06,1.03-7.13c0-3.95-0.34-6.27-1.03-6.96c-0.29-0.29-0.6-0.43-0.95-0.43
			s-0.66,0.14-0.95,0.43c-0.69,0.69-1.03,3.01-1.03,6.96c0,4.07,0.34,6.45,1.03,7.13C497.84,411.85,498.16,411.99,498.5,411.99z"/>
		<path class="st2" d="M197.15,523.02l-1.12,0.52l-0.17,0.6c-0.29,0.63-0.69,0.69-1.2,0.17l-1.55-2.32
			c1.43-0.23,2.78-0.54,4.04-0.95v-4.3h-1.46c-0.52,1.32-1.09,2.52-1.72,3.61c-0.4,0.57-0.6,0.6-0.6,0.09
			c0.46-1.83,0.72-4.5,0.77-7.99l2.49,0.77c0.34,0.23,0.37,0.54,0.09,0.95l-0.34,0.26c-0.12,0.57-0.26,1.15-0.43,1.72h1.2v-6.27
			l2.84,0.43c0.46,0.17,0.49,0.49,0.09,0.95l-0.52,0.34v4.55h0.43l1.2-1.72l1.63,1.63c0.29,0.34,0.23,0.57-0.17,0.69h-3.09v3.52
			c0.69-0.23,1.92-0.63,3.7-1.2c0.46-0.17,0.63-0.11,0.52,0.17c-0.06,0.17-1.46,1.03-4.21,2.58v7.13c0,0.34-0.2,0.57-0.6,0.69
			c-0.23,0.06-0.57,0.14-1.03,0.26c-0.52,0.11-0.77-0.03-0.77-0.43V523.02z M208.5,518.55h-8.34l-0.17-0.6h5.41v-3.52h-3.61
			l-0.17-0.6h3.78v-3.95l2.92,0.34c0.52,0.17,0.54,0.49,0.09,0.95l-0.6,0.34v2.32h2.06l1.2-1.8l1.89,1.72
			c0.4,0.34,0.34,0.57-0.17,0.69h-4.98v3.52h2.66l1.38-1.8l1.8,1.72c0.4,0.34,0.37,0.57-0.09,0.69h-2.84v3.18h0.52l1.2-1.8
			l1.72,1.72c0.29,0.34,0.23,0.57-0.17,0.69h-3.27v5.59c0,0.69-0.32,1.2-0.95,1.55c-0.12,0.11-0.37,0.23-0.77,0.34
			c-1.03,0.29-1.49,0.17-1.38-0.34c0-0.23-0.03-0.43-0.09-0.6c-0.06-0.12-0.37-0.29-0.95-0.52c-0.63-0.23-1.09-0.4-1.38-0.52
			c-0.4-0.17-0.49-0.29-0.26-0.34c0.23,0,1.15,0,2.75,0c0.52,0,0.77-0.2,0.77-0.6v-4.55h-8.25l-0.17-0.6h8.42V518.55z
			 M201.88,522.94c0.34-0.11,0.92-0.06,1.72,0.17c1.09,0.29,1.8,0.83,2.15,1.63c0.4,1.09,0.11,1.83-0.86,2.23
			c-0.69,0.23-1.15,0.03-1.38-0.6c0-0.06-0.12-0.6-0.34-1.63c-0.17-0.63-0.52-1.12-1.03-1.46
			C201.85,523.11,201.76,522.99,201.88,522.94z"/>
		<path class="st2" d="M233.76,526.03l1.98,1.89c0.4,0.46,0.34,0.74-0.17,0.86h-19.51l-0.34-0.6h8.51V510.3l3.18,0.43
			c0.46,0.17,0.49,0.54,0.09,1.12l-0.52,0.43v5.93h4.13l1.29-1.89l2.06,1.72c0.4,0.4,0.34,0.66-0.17,0.77h-7.3v9.37h5.16
			L233.76,526.03z"/>
		<path class="st2" d="M246.91,517.35c-0.69,2.41-1.55,4.38-2.58,5.93c-1.32,2.06-3.15,3.72-5.5,4.98c-1.2,0.63-1.58,0.72-1.12,0.26
			l0.6-0.52c0.69-0.57,1.2-1.06,1.55-1.46c1.26-1.38,2.23-2.86,2.92-4.47c0.74-1.78,1.26-3.24,1.55-4.38
			c-0.57,0.06-1.58,0.26-3.01,0.6l-0.34,0.17c-0.23,0.12-0.54,0.03-0.95-0.26c-0.75-0.57-1.26-1.06-1.55-1.46
			c-0.17-0.23-0.26-0.49-0.26-0.77v-0.26c0-0.4,0.14-0.6,0.43-0.6c0.57,0.92,1.29,1.32,2.15,1.2l3.87-0.43
			c0.06-0.4,0.17-1.12,0.34-2.15s0.2-1.66,0.09-1.89c-0.06-0.17-0.52-0.46-1.38-0.86c0.17-0.29,0.37-0.52,0.6-0.69
			c0.29-0.17,0.66-0.17,1.12,0c0.97,0.4,1.75,0.8,2.32,1.2c0.86,0.69,0.95,1.12,0.26,1.29c-0.17,0.23-0.29,0.49-0.34,0.77
			c-0.17,0.8-0.32,1.52-0.43,2.15l4.21-0.34l0.95-1.2c0.52,0.4,1.06,0.95,1.63,1.63c0.69,0.75,0.95,1.26,0.77,1.55
			c-0.29,0.17-0.6,0.32-0.95,0.43c-0.17,0.86-0.34,1.75-0.52,2.66c-0.12,0.69-0.34,1.52-0.69,2.49c-0.4,1.2-0.77,2.15-1.12,2.84
			c-0.52,1.03-1.12,1.72-1.8,2.06c-0.8,0.46-1.38,0.6-1.72,0.43c-0.23-0.17-0.34-0.46-0.34-0.86c0-0.34-0.03-0.66-0.09-0.95
			c-0.86-0.8-1.78-1.63-2.75-2.49c-0.12-0.23-0.03-0.31,0.26-0.26c0.69,0.34,1.52,0.69,2.49,1.03c0.69,0.23,1.17,0.26,1.46,0.09
			c0.23-0.17,0.46-0.49,0.69-0.95c0.4-0.86,0.69-1.72,0.86-2.58c0.4-1.66,0.69-3.09,0.86-4.3L246.91,517.35z"/>
		<path class="st2" d="M263.24,517.61c-0.34,2.01-0.8,3.67-1.38,4.98c-0.86,1.89-2.03,3.47-3.52,4.73c-0.69,0.63-1.29,1.12-1.8,1.46
			c-0.29,0.11-0.34,0.03-0.17-0.26l0.6-0.77c0.57-0.74,1.06-1.49,1.46-2.23c0.63-1.2,1.09-2.41,1.38-3.61
			c0.34-1.43,0.54-2.52,0.6-3.27l0.09-1.29c0.06-0.86-0.2-1.4-0.77-1.63l-0.6-0.26c0.46-0.46,0.89-0.72,1.29-0.77
			c0.23-0.06,0.49,0,0.77,0.17c0.4,0.23,0.69,0.4,0.86,0.52c0.97,0.57,1.52,0.97,1.63,1.2C263.84,516.86,263.7,517.21,263.24,517.61
			z M265.39,525.86l0.09-4.64v-7.48c0-0.34-0.14-0.6-0.43-0.77c-0.23-0.11-0.57-0.29-1.03-0.52c0.17-0.23,0.52-0.46,1.03-0.69
			c0.52-0.17,1.06-0.03,1.63,0.43c0.69,0.4,1.23,0.75,1.63,1.03c0.4,0.4,0.26,0.89-0.43,1.46c-0.06,0.75-0.12,2.15-0.17,4.21
			l-0.09,5.59c3.15-1.78,5.93-3.92,8.34-6.45c0.17-0.17,0.31-0.17,0.43,0c0.11,0.17-0.23,0.77-1.03,1.8
			c-0.69,0.92-1.17,1.52-1.46,1.8c-1.43,1.83-3.41,3.78-5.93,5.84c-0.4,1.32-0.86,1.63-1.38,0.95c-0.17-0.17-0.34-0.34-0.52-0.52
			l-1.63-1.46C264.73,526.23,265.04,526.03,265.39,525.86z"/>
		<path class="st2" d="M281.54,520.27c-0.06,1.78-0.09,2.98-0.09,3.61c0,0.57,0.09,0.97,0.26,1.2c0.29,0.4,0.97,0.6,2.06,0.6
			c1.43,0,2.78-0.06,4.04-0.17c0.92-0.06,1.52-0.14,1.8-0.26c0.17-0.06,0.34-0.14,0.52-0.26c0.34-0.11,0.63-0.14,0.86-0.09
			c0.46,0.17,0.89,0.52,1.29,1.03c0.29,0.46,0.23,0.92-0.17,1.38c-0.29,0.23-1.52,0.4-3.7,0.52c-0.75,0.06-1.75,0.09-3.01,0.09
			c-1.95,0.06-3.32-0.06-4.13-0.34c-0.75-0.23-1.26-0.57-1.55-1.03c-0.17-0.29-0.29-0.86-0.34-1.72c-0.06-2.06-0.09-3.78-0.09-5.16
			c0.06-3.04,0.09-4.98,0.09-5.84c0-0.52-0.03-0.83-0.09-0.95c-0.17-0.23-0.6-0.49-1.29-0.77c0.11-0.23,0.23-0.4,0.34-0.52
			c0.4-0.29,0.77-0.37,1.12-0.26c0.46,0.12,0.97,0.34,1.55,0.69c0.69,0.4,1.15,0.75,1.38,1.03c0.34,0.46,0.14,0.92-0.6,1.38
			c-0.17,2.29-0.26,4.01-0.26,5.16c0.4-0.11,0.97-0.34,1.72-0.69c1.66-0.74,2.86-1.35,3.61-1.8l1.46-0.95
			c0.57-0.34,0.69-0.66,0.34-0.95l-0.69-0.52c0.52-0.52,1.17-0.54,1.98-0.09c0.23,0.17,0.52,0.4,0.86,0.69
			c0.97,0.8,1.49,1.4,1.55,1.8c0.06,0.34-0.12,0.57-0.52,0.69c-0.34,0.12-0.66,0.17-0.95,0.17c-2.35,0.69-4.7,1.29-7.05,1.8
			L281.54,520.27z M292.29,515.12c-0.23,0-0.46-0.14-0.69-0.43c-0.17-0.29-0.43-0.66-0.77-1.12c-0.29-0.4-0.75-0.8-1.38-1.2
			c-0.34-0.23-0.29-0.31,0.17-0.26c1.66,0.17,2.78,0.75,3.35,1.72C293.26,514.57,293.03,515,292.29,515.12z M291.17,510.48
			c0.86,0,1.66,0.12,2.41,0.34c1.03,0.34,1.55,0.83,1.55,1.46c-0.06,1.03-0.6,1.17-1.63,0.43c-0.23-0.29-0.4-0.52-0.52-0.69
			c-0.52-0.57-1.12-1-1.8-1.29C290.94,510.62,290.94,510.53,291.17,510.48z"/>
		<path class="st2" d="M308.44,522.51c-0.69,0-1.29-0.26-1.8-0.77c-0.51-0.52-0.77-1.12-0.77-1.8s0.26-1.29,0.77-1.8
			c0.52-0.52,1.12-0.77,1.8-0.77s1.29,0.26,1.8,0.77s0.77,1.12,0.77,1.8s-0.26,1.29-0.77,1.8S309.13,522.51,308.44,522.51z"/>
		<path class="st2" d="M319.44,522.51c-0.69,0-1.29-0.26-1.8-0.77s-0.77-1.12-0.77-1.8s0.26-1.29,0.77-1.8s1.12-0.77,1.8-0.77
			s1.29,0.26,1.8,0.77s0.77,1.12,0.77,1.8s-0.26,1.29-0.77,1.8S320.13,522.51,319.44,522.51z"/>
		<path class="st2" d="M330.44,522.51c-0.69,0-1.29-0.26-1.8-0.77s-0.77-1.12-0.77-1.8s0.26-1.29,0.77-1.8s1.12-0.77,1.8-0.77
			s1.29,0.26,1.8,0.77s0.77,1.12,0.77,1.8s-0.26,1.29-0.77,1.8S331.13,522.51,330.44,522.51z"/>
		<path class="st2" d="M341.44,522.51c-0.69,0-1.29-0.26-1.8-0.77s-0.77-1.12-0.77-1.8s0.26-1.29,0.77-1.8s1.12-0.77,1.8-0.77
			s1.29,0.26,1.8,0.77s0.77,1.12,0.77,1.8s-0.26,1.29-0.77,1.8S342.13,522.51,341.44,522.51z"/>
		<path class="st2" d="M352.44,522.51c-0.69,0-1.29-0.26-1.8-0.77s-0.77-1.12-0.77-1.8s0.26-1.29,0.77-1.8s1.12-0.77,1.8-0.77
			s1.29,0.26,1.8,0.77s0.77,1.12,0.77,1.8s-0.26,1.29-0.77,1.8S353.13,522.51,352.44,522.51z"/>
		<path class="st2" d="M363.44,522.51c-0.69,0-1.29-0.26-1.8-0.77s-0.77-1.12-0.77-1.8s0.26-1.29,0.77-1.8s1.12-0.77,1.8-0.77
			s1.29,0.26,1.8,0.77s0.77,1.12,0.77,1.8s-0.26,1.29-0.77,1.8S364.13,522.51,363.44,522.51z"/>
		<path class="st2" d="M374.44,522.51c-0.69,0-1.29-0.26-1.8-0.77s-0.77-1.12-0.77-1.8s0.26-1.29,0.77-1.8s1.12-0.77,1.8-0.77
			s1.29,0.26,1.8,0.77s0.77,1.12,0.77,1.8s-0.26,1.29-0.77,1.8S375.13,522.51,374.44,522.51z"/>
		<path class="st2" d="M385.44,522.51c-0.69,0-1.29-0.26-1.8-0.77s-0.77-1.12-0.77-1.8s0.26-1.29,0.77-1.8s1.12-0.77,1.8-0.77
			s1.29,0.26,1.8,0.77s0.77,1.12,0.77,1.8s-0.26,1.29-0.77,1.8S386.13,522.51,385.44,522.51z"/>
		<path class="st2" d="M396.44,522.51c-0.69,0-1.29-0.26-1.8-0.77s-0.77-1.12-0.77-1.8s0.26-1.29,0.77-1.8s1.12-0.77,1.8-0.77
			s1.29,0.26,1.8,0.77s0.77,1.12,0.77,1.8s-0.26,1.29-0.77,1.8S397.13,522.51,396.44,522.51z"/>
		<path class="st2" d="M407.44,522.51c-0.69,0-1.29-0.26-1.8-0.77s-0.77-1.12-0.77-1.8s0.26-1.29,0.77-1.8s1.12-0.77,1.8-0.77
			s1.29,0.26,1.8,0.77s0.77,1.12,0.77,1.8s-0.26,1.29-0.77,1.8S408.13,522.51,407.44,522.51z"/>
		<path class="st2" d="M418.44,522.51c-0.69,0-1.29-0.26-1.8-0.77s-0.77-1.12-0.77-1.8s0.26-1.29,0.77-1.8s1.12-0.77,1.8-0.77
			s1.29,0.26,1.8,0.77s0.77,1.12,0.77,1.8s-0.26,1.29-0.77,1.8S419.13,522.51,418.44,522.51z"/>
		<path class="st2" d="M429.44,522.51c-0.69,0-1.29-0.26-1.8-0.77s-0.77-1.12-0.77-1.8s0.26-1.29,0.77-1.8s1.12-0.77,1.8-0.77
			s1.29,0.26,1.8,0.77s0.77,1.12,0.77,1.8s-0.26,1.29-0.77,1.8S430.13,522.51,429.44,522.51z"/>
		<path class="st2" d="M440.44,522.51c-0.69,0-1.29-0.26-1.8-0.77s-0.77-1.12-0.77-1.8s0.26-1.29,0.77-1.8s1.12-0.77,1.8-0.77
			s1.29,0.26,1.8,0.77s0.77,1.12,0.77,1.8s-0.26,1.29-0.77,1.8S441.13,522.51,440.44,522.51z"/>
		<path class="st2" d="M451.67,517.78h3.87l-2.41-4.04c-0.52-0.86-1.26-1.29-2.23-1.29v-0.69h7.39v0.69c-0.8-0.06-1.4,0.03-1.8,0.26
			c-0.29,0.29-0.2,0.83,0.26,1.63l2.06,3.44h2.66l2.06-3.61c0.34-0.57,0.34-1,0-1.29c-0.29-0.29-0.97-0.43-2.06-0.43v-0.69h5.84
			v0.69c-0.8,0-1.32,0.06-1.55,0.17c-0.52,0.29-0.97,0.8-1.38,1.55l-2.06,3.61h4.3v0.69h-4.73l-1.2,2.15v0.95h5.93v0.69h-5.93v3.18
			c0,0.69,0.14,1.15,0.43,1.38c0.4,0.29,1.03,0.43,1.89,0.43v0.6h-7.65v-0.6c1.03,0,1.66-0.11,1.89-0.34
			c0.34-0.29,0.52-0.77,0.52-1.46v-3.18h-6.1v-0.69h6.1l-1.8-3.09h-4.3V517.78z M459.14,518.47l0.95,1.63l0.95-1.63H459.14z"/>
		<path class="st2" d="M480.37,522.94l-0.34,5.16h-8.59v-0.86c0.29-0.46,0.63-0.95,1.03-1.46c1.03-1.32,2.09-2.63,3.18-3.95
			c0.63-0.74,1.15-1.6,1.55-2.58c0.4-0.97,0.6-1.98,0.6-3.01c0-1.26-0.26-2.15-0.77-2.66c-0.46-0.46-1-0.69-1.63-0.69
			c-0.75,0-1.38,0.26-1.89,0.77c-0.46,0.46-0.77,0.95-0.95,1.46c0.52-0.11,0.95,0,1.29,0.34c0.29,0.29,0.43,0.66,0.43,1.12
			c0,0.52-0.14,0.92-0.43,1.2c-0.23,0.23-0.52,0.34-0.86,0.34s-0.63-0.11-0.86-0.34c-0.34-0.34-0.52-0.86-0.52-1.55
			c0-1.09,0.52-2.15,1.55-3.18c0.8-0.8,1.78-1.2,2.92-1.2c1.26,0,2.29,0.4,3.09,1.2c0.8,0.8,1.2,1.89,1.2,3.27
			c0,1.49-0.54,2.78-1.63,3.87c-0.69,0.69-1.26,1.23-1.72,1.63c-1.38,1.2-2.52,2.44-3.44,3.7h4.73c0.52,0,0.89-0.31,1.12-0.95
			c0.17-0.46,0.31-1,0.43-1.63H480.37z"/>
		<path class="st2" d="M483.46,529.9l-0.6-0.69c1.26-0.86,2.03-1.8,2.32-2.84c-0.69,0.46-1.4,0.52-2.15,0.17
			c-0.69-0.4-1.03-1-1.03-1.8c0.06-1.03,0.57-1.69,1.55-1.98c0.52-0.11,1.03-0.09,1.55,0.09c0.57,0.23,0.97,0.63,1.2,1.2
			c0.52,1.32,0.26,2.66-0.77,4.04C485.01,528.78,484.32,529.38,483.46,529.9z"/>
		<path class="st2" d="M493.78,519.58c0.86,0.06,1.6,0.4,2.23,1.03c0.8,0.8,1.2,1.83,1.2,3.09c0,1.95-0.89,3.29-2.66,4.04
			c-1.89,0.69-3.5,0.49-4.81-0.6c-0.46-0.4-0.8-1.03-1.03-1.89c-0.23-0.92-0.12-1.6,0.34-2.06c0.23-0.23,0.52-0.34,0.86-0.34
			s0.63,0.12,0.86,0.34c0.29,0.29,0.43,0.66,0.43,1.12c0,0.46-0.14,0.83-0.43,1.12c-0.29,0.29-0.63,0.43-1.03,0.43
			c0.23,0.63,0.63,1.06,1.2,1.29c0.69,0.29,1.32,0.32,1.89,0.09c0.57-0.23,1-0.63,1.29-1.2c0.34-0.69,0.52-1.46,0.52-2.32
			c0-1.15-0.2-2.06-0.6-2.75c-0.57-0.97-1.26-1.29-2.06-0.95l-0.26,0.09c-0.46,0.17-0.72,0.03-0.77-0.43c0-0.46,0.29-0.63,0.86-0.52
			c0.57,0.17,1,0.2,1.29,0.09c0.92-0.34,1.35-1.63,1.29-3.87c-0.06-0.97-0.34-1.72-0.86-2.23c-0.46-0.46-1.09-0.6-1.89-0.43
			c-0.8,0.23-1.29,0.72-1.46,1.46c0.69-0.06,1.15,0.2,1.38,0.77c0.23,0.69,0.11,1.26-0.34,1.72c-0.34,0.34-0.77,0.43-1.29,0.26
			c-0.57-0.23-0.86-0.74-0.86-1.55c0-1.32,0.54-2.32,1.63-3.01c0.74-0.46,1.66-0.63,2.75-0.52c1.2,0.12,2.12,0.66,2.75,1.63
			c0.52,0.75,0.72,1.78,0.6,3.09c-0.23,0.86-0.54,1.49-0.95,1.89C495.27,519.04,494.58,519.41,493.78,519.58z"/>
		<path class="st2" d="M504.35,528.18c-0.8,0-1.55-0.34-2.23-1.03c-1.09-1.09-1.8-2.95-2.15-5.59c-0.12-1.09-0.12-2.18,0-3.27
			c0.34-2.58,1.06-4.41,2.15-5.5c0.63-0.63,1.38-0.95,2.23-0.95s1.6,0.32,2.23,0.95c1.09,1.09,1.8,2.92,2.15,5.5
			c0.11,1.09,0.11,2.18,0,3.27c-0.34,2.64-1.06,4.5-2.15,5.59C505.89,527.83,505.15,528.18,504.35,528.18z M504.35,527.49
			c0.34,0,0.66-0.14,0.95-0.43c0.69-0.69,1.03-3.06,1.03-7.13c0-3.95-0.34-6.27-1.03-6.96c-0.29-0.29-0.6-0.43-0.95-0.43
			s-0.66,0.14-0.95,0.43c-0.69,0.69-1.03,3.01-1.03,6.96c0,4.07,0.34,6.45,1.03,7.13C503.69,527.35,504,527.49,504.35,527.49z"/>
		<path class="st2" d="M515.78,528.18c-0.8,0-1.55-0.34-2.23-1.03c-1.09-1.09-1.8-2.95-2.15-5.59c-0.12-1.09-0.12-2.18,0-3.27
			c0.34-2.58,1.06-4.41,2.15-5.5c0.63-0.63,1.38-0.95,2.23-0.95s1.6,0.32,2.23,0.95c1.09,1.09,1.8,2.92,2.15,5.5
			c0.11,1.09,0.11,2.18,0,3.27c-0.34,2.64-1.06,4.5-2.15,5.59C517.32,527.83,516.58,528.18,515.78,528.18z M515.78,527.49
			c0.34,0,0.66-0.14,0.95-0.43c0.69-0.69,1.03-3.06,1.03-7.13c0-3.95-0.34-6.27-1.03-6.96c-0.29-0.29-0.6-0.43-0.95-0.43
			s-0.66,0.14-0.95,0.43c-0.69,0.69-1.03,3.01-1.03,6.96c0,4.07,0.34,6.45,1.03,7.13C515.12,527.35,515.43,527.49,515.78,527.49z"/>
		<path class="st2" d="M202.91,637.66h-8.77l-0.26-0.6h9.02v-4.9h-3.87c-0.69,0.97-1.2,1.66-1.55,2.06
			c-0.23,0.29-0.66,0.72-1.29,1.29c-0.12,0.12-0.23,0.23-0.34,0.34c-0.4,0.4-0.49,0.26-0.26-0.43c1.38-2.29,2.21-5.18,2.49-8.68
			l3.01,1.2c0.4,0.29,0.43,0.57,0.09,0.86l-0.69,0.34c-0.52,1.2-0.89,2.01-1.12,2.41h3.52v-6.02l2.84,0.34
			c0.46,0.17,0.49,0.54,0.09,1.12l-0.52,0.43v4.13h3.44l1.55-2.06l1.98,1.89c0.34,0.4,0.29,0.66-0.17,0.77h-6.79v4.9h4.9l1.55-2.15
			l2.06,1.89c0.4,0.46,0.34,0.75-0.17,0.86h-8.34v6.62c0,0.29-0.14,0.52-0.43,0.69c-0.23,0.11-0.66,0.2-1.29,0.26
			c-0.46,0.06-0.69-0.14-0.69-0.6V637.66z"/>
		<path class="st2" d="M232.04,630.27c0.63,0.34,1.17,0.69,1.63,1.03c0.69,0.52,0.95,1,0.77,1.46c-0.17,0.69-0.75,0.83-1.72,0.43
			c-1.72-0.29-3.95-0.34-6.7-0.17c0,1.83,0.03,3.64,0.09,5.41c0.06,1.78,0.09,3.01,0.09,3.7c0,0.4-0.09,0.77-0.26,1.12
			c-0.52,0.97-1.15,1.4-1.89,1.29c-0.4-0.06-0.6-0.32-0.6-0.77v-0.43c0-0.17-0.12-0.34-0.34-0.52c-0.17-0.11-1.06-0.69-2.66-1.72
			c-0.29-0.17-0.4-0.29-0.34-0.34c0.29-0.11,0.6-0.09,0.95,0.09c1.09,0.34,2,0.54,2.75,0.6c0.11-1.95,0.14-4.27,0.09-6.96v-1.2
			c-0.34,0-0.54,0-0.6,0c-0.63,0.06-2.38,0.37-5.24,0.95c-0.4,0.06-0.72,0-0.95-0.17c-0.34-0.29-0.72-0.66-1.12-1.12
			c-0.57-1.03-0.57-1.69,0-1.98c0.52,0.63,0.97,1,1.38,1.12c0.23,0.06,0.69,0.06,1.38,0c2-0.23,3.72-0.4,5.16-0.52
			c-0.06-1.26-0.12-2.38-0.17-3.35c-0.06-0.4-0.2-0.72-0.43-0.95c-0.23-0.17-0.57-0.34-1.03-0.52c0.57-0.8,1.26-1.03,2.06-0.69
			c0.29,0.12,0.6,0.29,0.95,0.52c0.63,0.4,1.06,0.69,1.29,0.86c0.34,0.46,0.23,0.89-0.34,1.29c-0.12,0.86-0.17,1.75-0.17,2.66
			c1.6-0.11,3.21-0.23,4.81-0.34L232.04,630.27z M219.93,635.43c0.4,1.15,0.49,2.32,0.26,3.52c-0.29,1.72-0.92,2.81-1.89,3.27
			c-0.75,0.4-1.38,0.37-1.89-0.09c-0.63-0.74-0.54-1.49,0.26-2.23c1.32-0.97,2.12-1.8,2.41-2.49c0.23-0.52,0.4-1.12,0.52-1.8
			C219.7,635.26,219.81,635.2,219.93,635.43z M231.18,640.41c-0.46-1.32-0.97-2.38-1.55-3.18c-0.34-0.46-0.77-0.95-1.29-1.46
			c-0.86-0.69-0.97-0.95-0.34-0.77c1.26,0.29,2.35,0.72,3.27,1.29c1.26,0.8,2.06,1.72,2.41,2.75c0.17,0.57,0.17,1.09,0,1.55
			c0,0.06-0.26,0.32-0.77,0.77C232.1,641.65,231.53,641.33,231.18,640.41z"/>
		<path class="st2" d="M242.87,633.11c-0.34,2.01-0.8,3.67-1.38,4.98c-0.86,1.89-2.03,3.47-3.52,4.73c-0.69,0.63-1.29,1.12-1.8,1.46
			c-0.29,0.11-0.34,0.03-0.17-0.26l0.6-0.77c0.57-0.74,1.06-1.49,1.46-2.23c0.63-1.2,1.09-2.41,1.38-3.61
			c0.34-1.43,0.54-2.52,0.6-3.27l0.09-1.29c0.06-0.86-0.2-1.4-0.77-1.63l-0.6-0.26c0.46-0.46,0.89-0.72,1.29-0.77
			c0.23-0.06,0.49,0,0.77,0.17c0.4,0.23,0.69,0.4,0.86,0.52c0.97,0.57,1.52,0.97,1.63,1.2
			C243.47,632.36,243.33,632.71,242.87,633.11z M245.02,641.36l0.09-4.64v-7.48c0-0.34-0.14-0.6-0.43-0.77
			c-0.23-0.11-0.57-0.29-1.03-0.52c0.17-0.23,0.52-0.46,1.03-0.69c0.52-0.17,1.06-0.03,1.63,0.43c0.69,0.4,1.23,0.75,1.63,1.03
			c0.4,0.4,0.26,0.89-0.43,1.46c-0.06,0.75-0.12,2.15-0.17,4.21l-0.09,5.59c3.15-1.78,5.93-3.92,8.34-6.45
			c0.17-0.17,0.31-0.17,0.43,0c0.11,0.17-0.23,0.77-1.03,1.8c-0.69,0.92-1.17,1.52-1.46,1.8c-1.43,1.83-3.41,3.78-5.93,5.84
			c-0.4,1.32-0.86,1.63-1.38,0.95c-0.17-0.17-0.34-0.34-0.52-0.52l-1.63-1.46C244.36,641.73,244.68,641.53,245.02,641.36z"/>
		<path class="st2" d="M274.41,633.19c0.46,0.23,0.92,0.52,1.38,0.86c0.92,0.63,1.29,1.17,1.12,1.63c-0.17,0.46-0.72,0.6-1.63,0.43
			c-0.8-0.11-1.75-0.17-2.84-0.17c-2.58,0.06-4.5,0.2-5.76,0.43c-0.06,0.86-0.09,2.06-0.09,3.61c0,0.63,0.14,1.03,0.43,1.2
			c0.23,0.17,0.97,0.23,2.23,0.17c1.32-0.06,2.21-0.14,2.66-0.26c0.74-0.46,1.43-0.43,2.06,0.09c0.4,0.29,0.66,0.54,0.77,0.77
			c0.23,0.52,0.14,0.89-0.26,1.12c-0.57,0.34-2.49,0.46-5.76,0.34c-1.26-0.06-2.18-0.2-2.75-0.43c-0.69-0.29-1.15-0.83-1.38-1.63
			c-0.12-0.46-0.17-1.03-0.17-1.72c0-0.74,0-1.66,0-2.75c-0.8,0.12-1.4,0.23-1.8,0.34c-1.66,0.4-2.61,0.63-2.84,0.69
			c-0.17,0.06-0.37,0.09-0.6,0.09c-0.4-0.17-0.86-0.57-1.38-1.2c-0.4-0.52-0.57-0.97-0.52-1.38c0.11-0.52,0.29-0.83,0.52-0.95
			c0.46,0.8,0.89,1.23,1.29,1.29c0.23,0.06,2-0.17,5.33-0.69c0-0.92,0-1.75,0-2.49c0-0.57-0.03-0.92-0.09-1.03
			c-0.12-0.23-0.32-0.43-0.6-0.6c-1.03,0.23-1.78,0.4-2.23,0.52c-0.34,0.12-0.6,0.12-0.77,0c-0.92-0.46-1.46-1.03-1.63-1.72
			s0-1.09,0.52-1.2c0.23,0.4,0.52,0.69,0.86,0.86s0.69,0.23,1.03,0.17c1.09-0.17,2.15-0.34,3.18-0.52l4.98-0.69l0.95-0.69
			c0.52,0.17,1.12,0.49,1.8,0.95c0.57,0.4,0.77,0.8,0.6,1.2c-0.12,0.29-0.4,0.4-0.86,0.34c-1.38-0.11-2.49-0.11-3.35,0
			c-1.2,0.17-2.18,0.32-2.92,0.43c0.86,0.34,1.29,0.63,1.29,0.86c-0.06,0.34-0.17,0.66-0.34,0.95l-0.17,2.32l3.18-0.34l3.52-0.26
			L274.41,633.19z"/>
		<path class="st2" d="M283.61,633.8c-0.86,0.12-1.52-0.52-1.98-1.89c-0.52-1.26-1.23-2.21-2.15-2.84c-0.4-0.29-0.77-0.52-1.12-0.69
			c-0.17-0.11-0.14-0.2,0.09-0.26c0.29-0.06,1.09,0.06,2.41,0.34c2.29,0.52,3.58,1.55,3.87,3.09
			C284.95,632.94,284.58,633.68,283.61,633.8z M279.05,640.07c0.23,0.4,0.43,0.75,0.6,1.03c0.11,0.17,0.43,0.17,0.95,0
			c1.15-0.34,2.49-0.92,4.04-1.72c1.38-0.69,2.66-1.43,3.87-2.23c2.41-1.55,4.55-3.24,6.45-5.07c0.06-0.06,0.17-0.17,0.34-0.34
			c0.69-0.46,0.83-0.34,0.43,0.34c-1.49,2.18-3.41,4.33-5.76,6.45c-2.01,1.83-4.53,3.55-7.56,5.16c-0.29,0.57-0.52,0.89-0.69,0.95
			c-0.4,0.11-1.12-0.37-2.15-1.46c-0.46-0.46-0.75-0.8-0.86-1.03C278.36,641.22,278.48,640.53,279.05,640.07z"/>
		<path class="st2" d="M308.44,638.01c-0.69,0-1.29-0.26-1.8-0.77c-0.51-0.52-0.77-1.12-0.77-1.8s0.26-1.29,0.77-1.8
			c0.52-0.52,1.12-0.77,1.8-0.77s1.29,0.26,1.8,0.77s0.77,1.12,0.77,1.8s-0.26,1.29-0.77,1.8S309.13,638.01,308.44,638.01z"/>
		<path class="st2" d="M319.44,638.01c-0.69,0-1.29-0.26-1.8-0.77s-0.77-1.12-0.77-1.8s0.26-1.29,0.77-1.8s1.12-0.77,1.8-0.77
			s1.29,0.26,1.8,0.77s0.77,1.12,0.77,1.8s-0.26,1.29-0.77,1.8S320.13,638.01,319.44,638.01z"/>
		<path class="st2" d="M330.44,638.01c-0.69,0-1.29-0.26-1.8-0.77s-0.77-1.12-0.77-1.8s0.26-1.29,0.77-1.8s1.12-0.77,1.8-0.77
			s1.29,0.26,1.8,0.77s0.77,1.12,0.77,1.8s-0.26,1.29-0.77,1.8S331.13,638.01,330.44,638.01z"/>
		<path class="st2" d="M341.44,638.01c-0.69,0-1.29-0.26-1.8-0.77s-0.77-1.12-0.77-1.8s0.26-1.29,0.77-1.8s1.12-0.77,1.8-0.77
			s1.29,0.26,1.8,0.77s0.77,1.12,0.77,1.8s-0.26,1.29-0.77,1.8S342.13,638.01,341.44,638.01z"/>
		<path class="st2" d="M352.44,638.01c-0.69,0-1.29-0.26-1.8-0.77s-0.77-1.12-0.77-1.8s0.26-1.29,0.77-1.8s1.12-0.77,1.8-0.77
			s1.29,0.26,1.8,0.77s0.77,1.12,0.77,1.8s-0.26,1.29-0.77,1.8S353.13,638.01,352.44,638.01z"/>
		<path class="st2" d="M363.44,638.01c-0.69,0-1.29-0.26-1.8-0.77s-0.77-1.12-0.77-1.8s0.26-1.29,0.77-1.8s1.12-0.77,1.8-0.77
			s1.29,0.26,1.8,0.77s0.77,1.12,0.77,1.8s-0.26,1.29-0.77,1.8S364.13,638.01,363.44,638.01z"/>
		<path class="st2" d="M374.44,638.01c-0.69,0-1.29-0.26-1.8-0.77s-0.77-1.12-0.77-1.8s0.26-1.29,0.77-1.8s1.12-0.77,1.8-0.77
			s1.29,0.26,1.8,0.77s0.77,1.12,0.77,1.8s-0.26,1.29-0.77,1.8S375.13,638.01,374.44,638.01z"/>
		<path class="st2" d="M385.44,638.01c-0.69,0-1.29-0.26-1.8-0.77s-0.77-1.12-0.77-1.8s0.26-1.29,0.77-1.8s1.12-0.77,1.8-0.77
			s1.29,0.26,1.8,0.77s0.77,1.12,0.77,1.8s-0.26,1.29-0.77,1.8S386.13,638.01,385.44,638.01z"/>
		<path class="st2" d="M396.44,638.01c-0.69,0-1.29-0.26-1.8-0.77s-0.77-1.12-0.77-1.8s0.26-1.29,0.77-1.8s1.12-0.77,1.8-0.77
			s1.29,0.26,1.8,0.77s0.77,1.12,0.77,1.8s-0.26,1.29-0.77,1.8S397.13,638.01,396.44,638.01z"/>
		<path class="st2" d="M407.44,638.01c-0.69,0-1.29-0.26-1.8-0.77s-0.77-1.12-0.77-1.8s0.26-1.29,0.77-1.8s1.12-0.77,1.8-0.77
			s1.29,0.26,1.8,0.77s0.77,1.12,0.77,1.8s-0.26,1.29-0.77,1.8S408.13,638.01,407.44,638.01z"/>
		<path class="st2" d="M418.44,638.01c-0.69,0-1.29-0.26-1.8-0.77s-0.77-1.12-0.77-1.8s0.26-1.29,0.77-1.8s1.12-0.77,1.8-0.77
			s1.29,0.26,1.8,0.77s0.77,1.12,0.77,1.8s-0.26,1.29-0.77,1.8S419.13,638.01,418.44,638.01z"/>
		<path class="st2" d="M429.44,638.01c-0.69,0-1.29-0.26-1.8-0.77s-0.77-1.12-0.77-1.8s0.26-1.29,0.77-1.8s1.12-0.77,1.8-0.77
			s1.29,0.26,1.8,0.77s0.77,1.12,0.77,1.8s-0.26,1.29-0.77,1.8S430.13,638.01,429.44,638.01z"/>
		<path class="st2" d="M440.44,638.01c-0.69,0-1.29-0.26-1.8-0.77s-0.77-1.12-0.77-1.8s0.26-1.29,0.77-1.8s1.12-0.77,1.8-0.77
			s1.29,0.26,1.8,0.77s0.77,1.12,0.77,1.8s-0.26,1.29-0.77,1.8S441.13,638.01,440.44,638.01z"/>
		<path class="st2" d="M451.67,633.28h3.87l-2.41-4.04c-0.52-0.86-1.26-1.29-2.23-1.29v-0.69h7.39v0.69c-0.8-0.06-1.4,0.03-1.8,0.26
			c-0.29,0.29-0.2,0.83,0.26,1.63l2.06,3.44h2.66l2.06-3.61c0.34-0.57,0.34-1,0-1.29c-0.29-0.29-0.97-0.43-2.06-0.43v-0.69h5.84
			v0.69c-0.8,0-1.32,0.06-1.55,0.17c-0.52,0.29-0.97,0.8-1.38,1.55l-2.06,3.61h4.3v0.69h-4.73l-1.2,2.15v0.95h5.93v0.69h-5.93v3.18
			c0,0.69,0.14,1.15,0.43,1.38c0.4,0.29,1.03,0.43,1.89,0.43v0.6h-7.65v-0.6c1.03,0,1.66-0.11,1.89-0.34
			c0.34-0.29,0.52-0.77,0.52-1.46v-3.18h-6.1v-0.69h6.1l-1.8-3.09h-4.3V633.28z M459.14,633.97l0.95,1.63l0.95-1.63H459.14z"/>
		<path class="st2" d="M473.93,635.6l-0.69-0.69c-0.8-0.8-1.2-1.83-1.2-3.09c0-1.43,0.46-2.61,1.38-3.52
			c0.69-0.69,1.52-1.03,2.49-1.03c0.97,0,1.78,0.32,2.41,0.95c0.69,0.69,1.06,1.49,1.12,2.41c0.06,1.03-0.12,1.86-0.52,2.49
			c-0.34,0.57-0.86,1.09-1.55,1.55l0.52,0.43c0.92,0.75,1.52,1.6,1.8,2.58c0.46,1.49,0.34,2.81-0.34,3.95
			c-0.86,1.43-2.26,2.09-4.21,1.98c-0.97-0.06-1.83-0.46-2.58-1.2c-0.69-0.69-1.03-1.58-1.03-2.66
			C471.52,637.95,472.32,636.58,473.93,635.6z M474.44,636.03c-0.86,0.8-1.35,1.55-1.46,2.23c-0.29,1.78,0,3.09,0.86,3.95
			c0.52,0.52,1.12,0.77,1.8,0.77s1.26-0.23,1.72-0.69c0.52-0.52,0.77-1.17,0.77-1.98c0-0.74-0.4-1.52-1.2-2.32
			C476.47,637.55,475.64,636.89,474.44,636.03z M476.85,634.23c0.34-0.23,0.66-0.6,0.95-1.12c0.29-0.52,0.43-1.26,0.43-2.23
			c0-1.03-0.26-1.8-0.77-2.32c-0.4-0.4-0.92-0.6-1.55-0.6c-0.63,0-1.15,0.2-1.55,0.6c-0.75,0.75-0.97,1.58-0.69,2.49
			c0.17,0.57,0.6,1.15,1.29,1.72C475.64,633.34,476.27,633.83,476.85,634.23z"/>
		<path class="st2" d="M487.07,643.68c-0.8,0-1.55-0.34-2.23-1.03c-1.09-1.09-1.8-2.95-2.15-5.59c-0.12-1.09-0.12-2.18,0-3.27
			c0.34-2.58,1.06-4.41,2.15-5.5c0.63-0.63,1.38-0.95,2.23-0.95s1.6,0.32,2.23,0.95c1.09,1.09,1.8,2.92,2.15,5.5
			c0.11,1.09,0.11,2.18,0,3.27c-0.34,2.64-1.06,4.5-2.15,5.59C488.62,643.33,487.88,643.68,487.07,643.68z M487.07,642.99
			c0.34,0,0.66-0.14,0.95-0.43c0.69-0.69,1.03-3.06,1.03-7.13c0-3.95-0.34-6.27-1.03-6.96c-0.29-0.29-0.6-0.43-0.95-0.43
			s-0.66,0.14-0.95,0.43c-0.69,0.69-1.03,3.01-1.03,6.96c0,4.07,0.34,6.45,1.03,7.13C486.42,642.85,486.73,642.99,487.07,642.99z"/>
		<path class="st2" d="M498.5,643.68c-0.8,0-1.55-0.34-2.23-1.03c-1.09-1.09-1.8-2.95-2.15-5.59c-0.12-1.09-0.12-2.18,0-3.27
			c0.34-2.58,1.06-4.41,2.15-5.5c0.63-0.63,1.38-0.95,2.23-0.95s1.6,0.32,2.23,0.95c1.09,1.09,1.8,2.92,2.15,5.5
			c0.11,1.09,0.11,2.18,0,3.27c-0.34,2.64-1.06,4.5-2.15,5.59C500.05,643.33,499.31,643.68,498.5,643.68z M498.5,642.99
			c0.34,0,0.66-0.14,0.95-0.43c0.69-0.69,1.03-3.06,1.03-7.13c0-3.95-0.34-6.27-1.03-6.96c-0.29-0.29-0.6-0.43-0.95-0.43
			s-0.66,0.14-0.95,0.43c-0.69,0.69-1.03,3.01-1.03,6.96c0,4.07,0.34,6.45,1.03,7.13C497.84,642.85,498.16,642.99,498.5,642.99z"/>
		<path class="st2" d="M202.82,748.78c-0.12,1.03-0.26,1.8-0.43,2.32c-0.29,0.8-0.72,1.4-1.29,1.8c-0.8,0.57-1.4,0.77-1.8,0.6
			c-0.17-0.06-0.29-0.23-0.34-0.52c0-0.29-0.03-0.52-0.09-0.69c-0.06-0.11-0.26-0.26-0.6-0.43c-0.4-0.17-0.75-0.31-1.03-0.43
			c-0.29,0.52-0.69,1.06-1.2,1.63c-0.57,0.63-1.15,1.17-1.72,1.63c-0.4,0.34-0.57,0.34-0.52,0c0.29-0.34,0.49-0.66,0.6-0.95
			c0.74-1.43,1.17-3.32,1.29-5.67c0.06-1.83,0-3.44-0.17-4.81l2.75,1.03h5.5c-0.23-1.15-0.37-2.32-0.43-3.52l2.32,0.34
			c0.63,0.23,0.69,0.54,0.17,0.95l-0.26,0.17c0,0.52,0.11,1.2,0.34,2.06h4.47l1.55-1.98l1.89,1.8c0.34,0.4,0.29,0.66-0.17,0.77H206
			c0.34,1.55,0.86,2.78,1.55,3.7c0.34-0.57,0.6-1,0.77-1.29c0.29-0.57,0.57-1.12,0.86-1.63l2.06,1.63c0.4,0.34,0.34,0.57-0.17,0.69
			h-0.6l-1.63,1.98c0.4,0.34,0.86,0.63,1.38,0.86c0.69,0.34,1.17,0.46,1.46,0.34c0.34-0.17,0.8-0.89,1.38-2.15
			c0.11-0.29,0.26-0.34,0.43-0.17c0.06,0.12,0,1.06-0.17,2.84l0.09,0.6l0.52,0.43c0.34,0.52,0.2,0.89-0.43,1.12
			c-0.63,0.17-1.6-0.03-2.92-0.6c-1.2-0.57-2.23-1.17-3.09-1.8c-0.4,0.29-0.83,0.57-1.29,0.86c-0.69,0.46-1.52,0.86-2.49,1.2
			c-1.32,0.52-2.15,0.72-2.49,0.6c-0.12-0.06-0.09-0.17,0.09-0.34c1.32-0.63,2.29-1.2,2.92-1.72c0.74-0.57,1.43-1.17,2.06-1.8
			c-1.2-1.32-2.01-3.09-2.41-5.33h-5.76l-0.09,2.41h2.75l0.69-1.12l1.89,1.38c0.57,0.46,0.49,0.83-0.26,1.12L202.82,748.78z
			 M212.71,757.37l1.63,1.8c0.29,0.4,0.23,0.66-0.17,0.77h-20.02l-0.26-0.6h2.58v-6.02l2.41,1.12h9.88l0.6-1.03l2.32,1.72
			c0.4,0.29,0.34,0.54-0.17,0.77l-0.26,0.09v3.35h0.17L212.71,757.37z M198.01,747.92c-0.12,1.43-0.32,2.49-0.6,3.18l0.95,0.09
			c0.97,0.12,1.58,0,1.8-0.34c0.34-0.52,0.54-1.49,0.6-2.92H198.01z M198.87,755.05v4.3h1.98v-4.3H198.87z M202.91,755.05v4.3h1.98
			v-4.3H202.91z M208.41,743.45c-0.52-1.03-0.83-1.6-0.95-1.72c-0.69-0.34-0.8-0.57-0.34-0.69c1.2,0,2.12,0.2,2.75,0.6
			c0.8,0.63,0.86,1.32,0.17,2.06C209.3,744.23,208.75,744.14,208.41,743.45z M206.95,755.05v4.3h1.89v-4.3H206.95z"/>
		<path class="st2" d="M219.41,743.45v16.41c0,0.34-0.09,0.57-0.26,0.69c-0.12,0.11-0.49,0.23-1.12,0.34
			c-0.69,0.11-1.03-0.09-1.03-0.6v-18.73l2.66,1.29h12.8l0.77-1.29l2.15,1.98c0.46,0.34,0.54,0.57,0.26,0.69
			c-0.17,0.06-0.26,0.12-0.26,0.17l-0.52,0.17v13.84c0,0.52-0.09,0.89-0.26,1.12c-0.34,0.52-0.97,0.92-1.89,1.2
			c-0.63,0.17-0.97,0.11-1.03-0.17c-0.06-0.23-0.12-0.6-0.17-1.12c-0.12-0.17-0.4-0.32-0.86-0.43c-0.17-0.06-0.54-0.14-1.12-0.26
			c-0.17,0-0.34-0.03-0.52-0.09c-0.69-0.29-0.52-0.49,0.52-0.6c1.03,0.17,1.78,0.23,2.23,0.17c0.57-0.06,0.86-0.31,0.86-0.77v-14.01
			H219.41z M224.82,755.57v-6.62h-4.81l-0.26-0.6h6.79c0.63-1.72,1.03-3.27,1.2-4.64l2.15,0.86c0.69,0.52,0.74,0.86,0.17,1.03
			l-0.52,0.09c-0.69,0.92-1.46,1.8-2.32,2.66h2.06l1.38-1.72l1.63,1.63c0.29,0.34,0.23,0.57-0.17,0.69h-5.24v6.62h1.8v-5.24
			l2.23,0.26c0.4,0.12,0.43,0.37,0.09,0.77l-0.26,0.17v4.81c0,0.34-0.17,0.6-0.52,0.77c-0.23,0.17-0.52,0.26-0.86,0.26
			c-0.46,0.06-0.69-0.17-0.69-0.69v-0.52h-5.59v0.95c0,0.29-0.12,0.49-0.34,0.6c-0.12,0.06-0.4,0.14-0.86,0.26
			c-0.57,0.12-0.86-0.06-0.86-0.52v-7.22l2.23,0.26c0.34,0.17,0.37,0.43,0.09,0.77l-0.26,0.17v4.13H224.82z M224.74,746.46
			c0.11,1.03-0.29,1.55-1.2,1.55c-0.34,0-0.6-0.2-0.77-0.6c-0.06-0.11-0.14-0.49-0.26-1.12c-0.17-0.86-0.52-1.52-1.03-1.98
			c-0.57-0.4-0.29-0.46,0.86-0.17c0.74,0.23,1.26,0.46,1.55,0.69C224.39,745.23,224.68,745.77,224.74,746.46z"/>
		<path class="st2" d="M239.69,754.02l5.16-9.88c0.34-0.29,0.49-0.23,0.43,0.17l-3.35,9.2c-0.23,0.57-0.29,1.23-0.17,1.98
			c0.06,0.4,0.2,1.15,0.43,2.23c0.29,1.55-0.14,2.29-1.29,2.23c-0.4,0-0.72-0.14-0.95-0.43c-0.23-0.23-0.34-0.54-0.34-0.95
			c0.06-1.15,0.09-2,0.09-2.58c-0.06-0.52-0.23-0.89-0.52-1.12c-0.23-0.17-0.57-0.31-1.03-0.43c-0.57-0.17-0.66-0.34-0.26-0.52
			c0.17-0.06,0.43-0.06,0.77,0C238.95,753.94,239.29,753.97,239.69,754.02z M241.5,747.15c-0.63,0.06-1.03-0.34-1.2-1.2
			c-0.23-1.26-0.6-2.12-1.12-2.58c-0.63-0.46-0.43-0.6,0.6-0.43c1.95,0.52,2.92,1.43,2.92,2.75
			C242.7,746.6,242.3,747.09,241.5,747.15z M245.96,749.04c-0.75,0.69-1.43,1.26-2.06,1.72c-0.8,0.52-0.83,0.26-0.09-0.77
			c0.74-0.86,1.38-1.75,1.89-2.66c1.09-1.89,2-4.18,2.75-6.88l2.84,1.29c0.4,0.34,0.37,0.69-0.09,1.03l-0.17,0.09
			c0.52,0.8,1.35,1.6,2.49,2.41c1.32,0.97,3.04,1.86,5.16,2.66c-1.09,0.69-1.89,1.46-2.41,2.32c-1.66-1.2-2.95-2.46-3.87-3.78
			c-0.69-0.92-1.29-2.12-1.8-3.61l-0.17,0.09c-0.75,1.43-1.4,2.52-1.98,3.27c-0.46,0.69-1.06,1.43-1.8,2.23h3.95l1.29-1.8l1.8,1.72
			c0.29,0.34,0.23,0.57-0.17,0.69H245.96z M247.77,752.05h-3.78l-0.26-0.6h9.97l0.77-1.38l2.15,1.8c0.4,0.34,0.34,0.63-0.17,0.86
			l-0.26,0.09v4.9c0,0.4-0.26,0.8-0.77,1.2c-0.34,0.29-0.77,0.49-1.29,0.6c-0.52,0.29-0.8,0.11-0.86-0.52
			c-0.06-0.23-0.09-0.43-0.09-0.6c-0.06-0.11-0.17-0.23-0.34-0.34c-0.52-0.23-0.97-0.46-1.38-0.69c-0.4-0.17-0.46-0.31-0.17-0.43
			c0.23,0,0.74,0,1.55,0c0.86,0.17,1.23,0.03,1.12-0.43v-4.47h-3.78v8.25c0,0.34-0.4,0.57-1.2,0.69c-0.8,0.11-1.2-0.09-1.2-0.6
			V752.05z"/>
		<path class="st2" d="M266.25,752.65l0.77-1.12l1.55,1.63c0.46,0.57,0.4,0.92-0.17,1.03l-0.43,0.09c-0.52,0.97-1.06,1.92-1.63,2.84
			c1.2,0.86,2.61,1.35,4.21,1.46c1.32,0.12,3.87,0.09,7.65-0.09l2.23-0.09c-0.57,0.69-1.03,1.43-1.38,2.23c-0.63,0-1.26,0-1.89,0
			c-2.23,0.06-3.95,0.06-5.16,0c-2.92-0.06-5.13-0.89-6.62-2.49c-1.15,1.09-2.72,2-4.73,2.75c-0.57,0.11-0.72,0.03-0.43-0.26
			c1.83-1.2,3.21-2.49,4.13-3.87l-1.29-2.32c-0.23,0.4-0.52,0.83-0.86,1.29c-0.86,1.15-1.49,1.83-1.89,2.06
			c-0.23,0.12-0.32,0.03-0.26-0.26c0.4-0.63,0.8-1.43,1.2-2.41c0.74-1.83,1.26-3.49,1.55-4.98h-2.92l-0.34-0.6h3.95v-2.15h-2.75
			l-0.26-0.6h3.01v-2.06h-3.18l-0.26-0.6h3.44v-3.09l2.41,0.26c0.63,0.17,0.69,0.49,0.17,0.95l-0.34,0.17v1.72h1.2l1.12-1.63
			l1.63,1.55c0.34,0.34,0.31,0.57-0.09,0.69h-3.87v2.06h0.95l0.95-1.46l1.55,1.46c0.29,0.29,0.23,0.49-0.17,0.6h-3.27v2.15h0.86
			l1.2-1.63l1.63,1.46v-3.7l2.15,1.12h1.12c0.23-0.8,0.4-1.86,0.52-3.18h-3.52l-0.34-0.6h7.82l1.2-1.72l1.89,1.63
			c0.4,0.34,0.34,0.57-0.17,0.69h-4.21c-0.86,1.2-1.63,2.26-2.32,3.18h3.7l0.86-1.2l1.63,1.72c0.4,0.46,0.34,0.83-0.17,1.12
			l-0.17,0.09v8.77c0,0.34-0.37,0.54-1.12,0.6c-0.63,0.06-0.95-0.06-0.95-0.34v-0.6h-5.84v0.6c0,0.34-0.32,0.57-0.95,0.69
			c-0.75,0.17-1.12,0.06-1.12-0.34v-7.73h-6.1l1.46,0.6c0.4,0.34,0.43,0.66,0.09,0.95l-0.34,0.17c-0.12,0.29-0.26,0.54-0.43,0.77
			H266.25z M263.84,753.25l-0.43,0.77c0.4,0.69,0.89,1.32,1.46,1.89c0.46-0.63,0.89-1.52,1.29-2.66H263.84z M271.49,756.34h0.77
			v-8.94h-0.77V756.34z M273.64,749.9h1.38v-2.49h-1.38V749.9z M273.64,753.16h1.38v-2.66h-1.38V753.16z M273.64,756.34h1.38v-2.58
			h-1.38V756.34z M276.39,747.41v8.94h0.95v-8.94H276.39z"/>
		<path class="st2" d="M297.44,753.51c-0.69,0-1.29-0.26-1.8-0.77s-0.77-1.12-0.77-1.8s0.26-1.29,0.77-1.8s1.12-0.77,1.8-0.77
			s1.29,0.26,1.8,0.77s0.77,1.12,0.77,1.8s-0.26,1.29-0.77,1.8S298.13,753.51,297.44,753.51z"/>
		<path class="st2" d="M308.44,753.51c-0.69,0-1.29-0.26-1.8-0.77c-0.51-0.52-0.77-1.12-0.77-1.8s0.26-1.29,0.77-1.8
			c0.52-0.52,1.12-0.77,1.8-0.77s1.29,0.26,1.8,0.77s0.77,1.12,0.77,1.8s-0.26,1.29-0.77,1.8S309.13,753.51,308.44,753.51z"/>
		<path class="st2" d="M319.44,753.51c-0.69,0-1.29-0.26-1.8-0.77s-0.77-1.12-0.77-1.8s0.26-1.29,0.77-1.8s1.12-0.77,1.8-0.77
			s1.29,0.26,1.8,0.77s0.77,1.12,0.77,1.8s-0.26,1.29-0.77,1.8S320.13,753.51,319.44,753.51z"/>
		<path class="st2" d="M330.44,753.51c-0.69,0-1.29-0.26-1.8-0.77s-0.77-1.12-0.77-1.8s0.26-1.29,0.77-1.8s1.12-0.77,1.8-0.77
			s1.29,0.26,1.8,0.77s0.77,1.12,0.77,1.8s-0.26,1.29-0.77,1.8S331.13,753.51,330.44,753.51z"/>
		<path class="st2" d="M341.44,753.51c-0.69,0-1.29-0.26-1.8-0.77s-0.77-1.12-0.77-1.8s0.26-1.29,0.77-1.8s1.12-0.77,1.8-0.77
			s1.29,0.26,1.8,0.77s0.77,1.12,0.77,1.8s-0.26,1.29-0.77,1.8S342.13,753.51,341.44,753.51z"/>
		<path class="st2" d="M352.44,753.51c-0.69,0-1.29-0.26-1.8-0.77s-0.77-1.12-0.77-1.8s0.26-1.29,0.77-1.8s1.12-0.77,1.8-0.77
			s1.29,0.26,1.8,0.77s0.77,1.12,0.77,1.8s-0.26,1.29-0.77,1.8S353.13,753.51,352.44,753.51z"/>
		<path class="st2" d="M363.44,753.51c-0.69,0-1.29-0.26-1.8-0.77s-0.77-1.12-0.77-1.8s0.26-1.29,0.77-1.8s1.12-0.77,1.8-0.77
			s1.29,0.26,1.8,0.77s0.77,1.12,0.77,1.8s-0.26,1.29-0.77,1.8S364.13,753.51,363.44,753.51z"/>
		<path class="st2" d="M374.44,753.51c-0.69,0-1.29-0.26-1.8-0.77s-0.77-1.12-0.77-1.8s0.26-1.29,0.77-1.8s1.12-0.77,1.8-0.77
			s1.29,0.26,1.8,0.77s0.77,1.12,0.77,1.8s-0.26,1.29-0.77,1.8S375.13,753.51,374.44,753.51z"/>
		<path class="st2" d="M385.44,753.51c-0.69,0-1.29-0.26-1.8-0.77s-0.77-1.12-0.77-1.8s0.26-1.29,0.77-1.8s1.12-0.77,1.8-0.77
			s1.29,0.26,1.8,0.77s0.77,1.12,0.77,1.8s-0.26,1.29-0.77,1.8S386.13,753.51,385.44,753.51z"/>
		<path class="st2" d="M396.44,753.51c-0.69,0-1.29-0.26-1.8-0.77s-0.77-1.12-0.77-1.8s0.26-1.29,0.77-1.8s1.12-0.77,1.8-0.77
			s1.29,0.26,1.8,0.77s0.77,1.12,0.77,1.8s-0.26,1.29-0.77,1.8S397.13,753.51,396.44,753.51z"/>
		<path class="st2" d="M407.44,753.51c-0.69,0-1.29-0.26-1.8-0.77s-0.77-1.12-0.77-1.8s0.26-1.29,0.77-1.8s1.12-0.77,1.8-0.77
			s1.29,0.26,1.8,0.77s0.77,1.12,0.77,1.8s-0.26,1.29-0.77,1.8S408.13,753.51,407.44,753.51z"/>
		<path class="st2" d="M418.44,753.51c-0.69,0-1.29-0.26-1.8-0.77s-0.77-1.12-0.77-1.8s0.26-1.29,0.77-1.8s1.12-0.77,1.8-0.77
			s1.29,0.26,1.8,0.77s0.77,1.12,0.77,1.8s-0.26,1.29-0.77,1.8S419.13,753.51,418.44,753.51z"/>
		<path class="st2" d="M429.44,753.51c-0.69,0-1.29-0.26-1.8-0.77s-0.77-1.12-0.77-1.8s0.26-1.29,0.77-1.8s1.12-0.77,1.8-0.77
			s1.29,0.26,1.8,0.77s0.77,1.12,0.77,1.8s-0.26,1.29-0.77,1.8S430.13,753.51,429.44,753.51z"/>
		<path class="st2" d="M440.44,753.51c-0.69,0-1.29-0.26-1.8-0.77s-0.77-1.12-0.77-1.8s0.26-1.29,0.77-1.8s1.12-0.77,1.8-0.77
			s1.29,0.26,1.8,0.77s0.77,1.12,0.77,1.8s-0.26,1.29-0.77,1.8S441.13,753.51,440.44,753.51z"/>
		<path class="st2" d="M451.67,748.78h3.87l-2.41-4.04c-0.52-0.86-1.26-1.29-2.23-1.29v-0.69h7.39v0.69c-0.8-0.06-1.4,0.03-1.8,0.26
			c-0.29,0.29-0.2,0.83,0.26,1.63l2.06,3.44h2.66l2.06-3.61c0.34-0.57,0.34-1,0-1.29c-0.29-0.29-0.97-0.43-2.06-0.43v-0.69h5.84
			v0.69c-0.8,0-1.32,0.06-1.55,0.17c-0.52,0.29-0.97,0.8-1.38,1.55l-2.06,3.61h4.3v0.69h-4.73l-1.2,2.15v0.95h5.93v0.69h-5.93v3.18
			c0,0.69,0.14,1.15,0.43,1.38c0.4,0.29,1.03,0.43,1.89,0.43v0.6h-7.65v-0.6c1.03,0,1.66-0.11,1.89-0.34
			c0.34-0.29,0.52-0.77,0.52-1.46v-3.18h-6.1v-0.69h6.1l-1.8-3.09h-4.3V748.78z M459.14,749.47l0.95,1.63l0.95-1.63H459.14z"/>
		<path class="st2" d="M479.51,759.09h-6.79v-0.69h0.34c0.57,0,1.03-0.17,1.38-0.52s0.52-0.86,0.52-1.55v-9.63
			c0-0.57-0.17-1.03-0.52-1.38c-0.29-0.29-0.86-0.43-1.72-0.43v-0.69c0.63,0,1.32-0.09,2.06-0.26c0.74-0.17,1.43-0.54,2.06-1.12
			h0.52v13.49c0,0.8,0.14,1.35,0.43,1.63c0.29,0.29,0.66,0.43,1.12,0.43h0.6V759.09z"/>
		<path class="st2" d="M483.46,760.9l-0.6-0.69c1.26-0.86,2.03-1.8,2.32-2.84c-0.69,0.46-1.4,0.52-2.15,0.17
			c-0.69-0.4-1.03-1-1.03-1.8c0.06-1.03,0.57-1.69,1.55-1.98c0.52-0.11,1.03-0.09,1.55,0.09c0.57,0.23,0.97,0.63,1.2,1.2
			c0.52,1.32,0.26,2.66-0.77,4.04C485.01,759.78,484.32,760.38,483.46,760.9z"/>
		<path class="st2" d="M492.92,759.18c-0.8,0-1.55-0.34-2.23-1.03c-1.09-1.09-1.8-2.95-2.15-5.59c-0.12-1.09-0.12-2.18,0-3.27
			c0.34-2.58,1.06-4.41,2.15-5.5c0.63-0.63,1.38-0.95,2.23-0.95s1.6,0.32,2.23,0.95c1.09,1.09,1.8,2.92,2.15,5.5
			c0.11,1.09,0.11,2.18,0,3.27c-0.34,2.64-1.06,4.5-2.15,5.59C494.46,758.83,493.72,759.18,492.92,759.18z M492.92,758.49
			c0.34,0,0.66-0.14,0.95-0.43c0.69-0.69,1.03-3.06,1.03-7.13c0-3.95-0.34-6.27-1.03-6.96c-0.29-0.29-0.6-0.43-0.95-0.43
			s-0.66,0.14-0.95,0.43c-0.69,0.69-1.03,3.01-1.03,6.96c0,4.07,0.34,6.45,1.03,7.13C492.26,758.35,492.57,758.49,492.92,758.49z"/>
		<path class="st2" d="M504.35,759.18c-0.8,0-1.55-0.34-2.23-1.03c-1.09-1.09-1.8-2.95-2.15-5.59c-0.12-1.09-0.12-2.18,0-3.27
			c0.34-2.58,1.06-4.41,2.15-5.5c0.63-0.63,1.38-0.95,2.23-0.95s1.6,0.32,2.23,0.95c1.09,1.09,1.8,2.92,2.15,5.5
			c0.11,1.09,0.11,2.18,0,3.27c-0.34,2.64-1.06,4.5-2.15,5.59C505.89,758.83,505.15,759.18,504.35,759.18z M504.35,758.49
			c0.34,0,0.66-0.14,0.95-0.43c0.69-0.69,1.03-3.06,1.03-7.13c0-3.95-0.34-6.27-1.03-6.96c-0.29-0.29-0.6-0.43-0.95-0.43
			s-0.66,0.14-0.95,0.43c-0.69,0.69-1.03,3.01-1.03,6.96c0,4.07,0.34,6.45,1.03,7.13C503.69,758.35,504,758.49,504.35,758.49z"/>
		<path class="st2" d="M515.78,759.18c-0.8,0-1.55-0.34-2.23-1.03c-1.09-1.09-1.8-2.95-2.15-5.59c-0.12-1.09-0.12-2.18,0-3.27
			c0.34-2.58,1.06-4.41,2.15-5.5c0.63-0.63,1.38-0.95,2.23-0.95s1.6,0.32,2.23,0.95c1.09,1.09,1.8,2.92,2.15,5.5
			c0.11,1.09,0.11,2.18,0,3.27c-0.34,2.64-1.06,4.5-2.15,5.59C517.32,758.83,516.58,759.18,515.78,759.18z M515.78,758.49
			c0.34,0,0.66-0.14,0.95-0.43c0.69-0.69,1.03-3.06,1.03-7.13c0-3.95-0.34-6.27-1.03-6.96c-0.29-0.29-0.6-0.43-0.95-0.43
			s-0.66,0.14-0.95,0.43c-0.69,0.69-1.03,3.01-1.03,6.96c0,4.07,0.34,6.45,1.03,7.13C515.12,758.35,515.43,758.49,515.78,758.49z"/>
	</g>
	<g>
	</g>
	<g>
	</g>
	<g>
	</g>
	<g>
	</g>
	<g>
	</g>
	<g>
	</g>
</g>
</svg>
